<svg xmlns="http://www.w3.org/2000/svg" data-name="Layer 1" viewBox="0 0 64 64"><path fill="#f5d769" d="M35,25l-3,8-3-8H13.9A1.9,1.9,0,0,1,12,23.1V4.9A1.9,1.9,0,0,1,13.9,3H50.1A1.9,1.9,0,0,1,52,4.9V23.1A1.9,1.9,0,0,1,50.1,25Z"/><circle cx="32" cy="50" r="11" fill="#5e7ce2"/><path fill="#263859" d="M38,59.23a11,11,0,0,1-12,0c.11-3.89,2.75-7.73,6-7.73S37.87,55.34,38,59.23Z"/><circle cx="11" cy="38" r="8" fill="#ff6768"/><circle cx="53" cy="38" r="8" fill="#ff6768"/><path fill="#263859" d="M15 44.94a8 8 0 01-8 0C7.63 42.77 9.18 41 11 41S14.33 42.77 15 44.94zM57 44.94a8 8 0 01-8 0c.63-2.17 2.18-3.94 4-3.94S56.37 42.77 57 44.94z"/><circle cx="32" cy="45.29" r="3" fill="#f9ca79"/><circle cx="53" cy="35.6" r="2" fill="#f9ca79"/><circle cx="11" cy="35.6" r="2" fill="#f9ca79"/><path d="M20,50A12,12,0,1,0,32,38,12,12,0,0,0,20,50ZM32,60a10,10,0,0,1-4.95-1.32c.33-3.28,2.58-6.18,4.95-6.18s4.62,2.9,5,6.18A10,10,0,0,1,32,60ZM42,50a10,10,0,0,1-3.24,7.35C38,53.79,35.43,50.5,32,50.5s-6,3.29-6.76,6.85A10,10,0,1,1,42,50Z"/><path d="M28 45.29a4 4 0 104-4A4 4 0 0028 45.29zm6 0a2 2 0 11-2-2A2 2 0 0134 45.29zM53 29a9 9 0 109 9A9 9 0 0053 29zm0 16a7 7 0 01-2.74-.56C50.89 43 52 42 53 42s2.11 1 2.74 2.44A7 7 0 0153 45zm4.45-1.6c-1-2.07-2.64-3.4-4.45-3.4s-3.48 1.33-4.45 3.4a7 7 0 118.9 0z"/><path d="M53 32.6a3 3 0 103 3A3 3 0 0053 32.6zm0 4a1 1 0 111-1A1 1 0 0153 36.6zM11 47a9 9 0 10-9-9A9 9 0 0011 47zm0-2a7 7 0 01-2.74-.56C8.89 43 10 42 11 42s2.11 1 2.74 2.44A7 7 0 0111 45zm0-14a7 7 0 014.45 12.4c-1-2.07-2.64-3.4-4.45-3.4s-3.48 1.33-4.45 3.4A7 7 0 0111 31z"/><path d="M11 38.6a3 3 0 10-3-3A3 3 0 0011 38.6zm0-4a1 1 0 11-1 1A1 1 0 0111 34.6zM13.9 26H28.31l2.75 7.35a1 1 0 001.88 0L35.69 26H50.1A2.9 2.9 0 0053 23.1V4.9A2.9 2.9 0 0050.1 2H13.9A2.9 2.9 0 0011 4.9V23.1A2.9 2.9 0 0013.9 26zM13 4.9a.9.9 0 01.9-.9H50.1a.9.9 0 01.9.9V23.1a.9.9 0 01-.9.9H35a1 1 0 00-.94.65L32 30.15l-2.06-5.5A1 1 0 0029 24H13.9a.9.9 0 01-.9-.9z"/><rect width="32" height="2" x="16" y="8"/><rect width="24" height="2" x="16" y="13"/><rect width="28" height="2" x="16" y="18"/></svg>