<svg xmlns="http://www.w3.org/2000/svg" xmlns:svgjs="http://svgjs.com/svgjs" xmlns:xlink="http://www.w3.org/1999/xlink" width="288" height="288"><svg xmlns="http://www.w3.org/2000/svg" width="288" height="288" enable-background="new 0 0 359.265 359.265" viewBox="0 0 359.265 359.265"><circle cx="86.242" cy="157.859" r="18.25" fill="#c55545" class="color000 svgShape"/><path fill="#c55545" d="M135.992,142.859c-8.283,0-15,6.717-15,15c0,8.285,6.717,15,15,15h123c8.285,0,15-6.715,15-15c0-8.283-6.715-15-15-15
		H135.992z" class="color000 svgShape"/><circle cx="86.242" cy="217.859" r="18.25" fill="#c55545" class="color000 svgShape"/><path fill="#c55545" d="M258.992 202.859h-123c-8.283 0-15 6.717-15 15 0 8.285 6.717 15 15 15h123c8.285 0 15-6.715 15-15C273.992 209.576 267.277 202.859 258.992 202.859zM353.416 297.234l-10.621-10.625 10.621-10.623c7.799-7.799 7.799-20.486 0-28.285-3.777-3.777-8.799-5.857-14.141-5.857-5.344 0-10.365 2.08-14.143 5.859l-10.625 10.623-10.625-10.625c-3.775-3.777-8.799-5.857-14.141-5.857-5.344 0-10.365 2.08-14.145 5.857-7.795 7.799-7.795 20.486.002 28.285l10.625 10.623L275.6 297.234c-7.797 7.799-7.797 20.486 0 28.285 3.777 3.777 8.799 5.857 14.143 5.857 5.342 0 10.363-2.08 14.139-5.857l10.631-10.623 10.619 10.621c3.777 3.777 8.801 5.859 14.143 5.859h.002c5.34 0 10.363-2.082 14.143-5.859C361.215 317.721 361.215 305.033 353.416 297.234z" class="color000 svgShape"/><path fill="#c55545" d="M20,277.33V104.889h286.984v120.848c2.658,1.271,5.182,2.836,7.523,4.689c3.756-2.973,7.977-5.211,12.477-6.658V37.889
		c0-5.524-4.479-10-10-10H10c-5.523,0-10,4.476-10,10V287.33c0,5.523,4.477,10,10,10h242.299c1.416-3.793,3.42-7.416,6.027-10.719
		c-2.26-2.854-4.09-5.975-5.479-9.281H20z" class="color000 svgShape"/></svg></svg>