<svg xmlns="http://www.w3.org/2000/svg" width="32" height="32"><g color="#000" transform="translate(-.017 -1022.362)"><path d="M3 1030.362v14.967H1c0 1.127.906 2.033 2.033 2.033h23.95a2.03 2.03 0 0 0 2.035-2.033H27v-14.967H3z" opacity=".15" overflow="visible" style="isolation:auto;mix-blend-mode:normal"/><path fill="#2b4255" overflow="visible" style="isolation:auto;mix-blend-mode:normal" d="M4 1030.362h24v15H4z"/><path style="isolation:auto;mix-blend-mode:normal" fill="#4bbfeb" d="M5.038 1031.516h21.923v12.846H5.038z" overflow="visible"/><path fill="#576d7e" d="M30.017 1045.328a2.03 2.03 0 0 1-2.034 2.034H4.033A2.03 2.03 0 0 1 2 1045.328z" overflow="visible" style="isolation:auto;mix-blend-mode:normal"/><path fill="#cad1d8" d="M18.662 1045.328c0 .516-.415.931-.93.931h-3.447a.929.929 0 0 1-.93-.93" overflow="visible" style="isolation:auto;mix-blend-mode:normal"/><path style="isolation:auto;mix-blend-mode:normal" d="M14.259 1033.362v.916c-.404.091-.79.249-1.141.468l-.644-.644-1.157 1.157.646.645c-.22.351-.38.736-.472 1.14h-.914v1.637h.916c.09.403.249.79.468 1.14l-.644.645 1.157 1.156.645-.645c.35.22.736.38 1.14.471v.914h1.636v-.916c.404-.09.79-.249 1.141-.468l.644.644 1.157-1.156-.646-.646c.22-.35.38-.736.472-1.14h.914v-1.636h-.916a3.682 3.682 0 0 0-.468-1.14l.644-.645-1.157-1.157-.645.646c-.35-.22-.736-.38-1.14-.472v-.914z" opacity=".15" overflow="visible"/><path fill="#f05542" d="M15.259 1033.362v.916c-.404.091-.79.249-1.141.468l-.644-.644-1.157 1.157.646.645c-.22.351-.38.736-.472 1.14h-.914v1.637h.916c.09.403.249.79.468 1.14l-.644.645 1.157 1.156.645-.645c.35.22.736.38 1.14.471v.914h1.636v-.916c.404-.09.79-.249 1.141-.468l.644.644 1.157-1.156-.646-.646c.22-.35.38-.736.472-1.14h.914v-1.636h-.916a3.682 3.682 0 0 0-.468-1.14l.644-.645-1.157-1.157-.645.646c-.35-.22-.736-.38-1.14-.472v-.914z" overflow="visible" style="isolation:auto;mix-blend-mode:normal"/><path d="M15.076 1036.361c-.823 0-1.5.678-1.5 1.5 0 .823.677 1.5 1.5 1.5s1.5-.677 1.5-1.5c0-.822-.677-1.5-1.5-1.5z" font-family="sans-serif" font-weight="400" opacity=".15" overflow="visible" style="line-height:normal;text-indent:0;text-align:start;text-decoration-line:none;text-decoration-style:solid;text-decoration-color:#000;text-transform:none;block-progression:tb;isolation:auto;mix-blend-mode:normal"/><circle cx="16.077" cy="1037.862" r="1" fill="#e9eded" stroke="#000" stroke-dashoffset=".5" stroke-linecap="round" stroke-linejoin="round" overflow="visible" style="isolation:auto;mix-blend-mode:normal"/></g></svg>