<svg xmlns="http://www.w3.org/2000/svg" xmlns:svgjs="http://svgjs.com/svgjs" xmlns:xlink="http://www.w3.org/1999/xlink" width="288" height="288"><svg xmlns="http://www.w3.org/2000/svg" width="288" height="288" data-name="Layer 1" viewBox="0 0 128 128"><path fill="#1487c5" d="M70.64709,87.608a40.30578,40.30578,0,0,0-4.60657-1.51481c-.5616-.15845-1.16409-.32172-1.803-.4928-.98707-.26927-1.79041-.498-2.40408-.6728-.81822-.23467-1.15742-.34552-1.27419-.38792a3.08464,3.08464,0,0,1-1.324-.90634,1.57755,1.57755,0,0,1-.35257-1.01719,2.09229,2.09229,0,0,1,.95657-1.67251,4.18565,4.18565,0,0,1,1.90346-.6862,11.75319,11.75319,0,0,1,1.82166-.12125,7.18464,7.18464,0,0,1,2.05074.26035,3.84812,3.84812,0,0,1,1.31807.65755,3.51467,3.51467,0,0,1,1.028,1.33184A2.86832,2.86832,0,0,0,73.191,80.02982a7.59692,7.59692,0,0,0-.82192-1.44787,7.84708,7.84708,0,0,0-3.6448-2.57181,12.80779,12.80779,0,0,0-2.12886-.59877V73.32676H60.862v1.976a11.91789,11.91789,0,0,0-1.50181.34665A9.30641,9.30641,0,0,0,56.422,77.00279a7.65779,7.65779,0,0,0-2.32,2.63728,7.3639,7.3639,0,0,0,.18522,7.2453,7.04568,7.04568,0,0,0,3.06905,2.68153,27.76534,27.76534,0,0,0,4.05612,1.40844c.77284.22242,1.63124.45,2.58408.69177.6055.15137,1.14924.29827,1.62751.42995a10.89877,10.89877,0,0,1,2.49111.90672,1.83486,1.83486,0,0,1,.91417,1.63866A2.83182,2.83182,0,0,1,67.87854,96.865a4.5142,4.5142,0,0,1-2.17421.89,9.90674,9.90674,0,0,1-1.69.1287A8.70215,8.70215,0,0,1,61.82,97.63008,4.75968,4.75968,0,0,1,59.96862,96.71a4.61612,4.61612,0,0,1-1.36272-1.97564,2.86527,2.86527,0,1,0-5.33924,2.08126,9.198,9.198,0,0,0,2.82731,3.88987,10.29776,10.29776,0,0,0,4.768,1.95776v2.02994h5.73346v-1.98679a12.75239,12.75239,0,0,0,3.05123-.89149,8.78535,8.78535,0,0,0,3.914-3.1914,7.94466,7.94466,0,0,0,1.37312-4.431,6.99527,6.99527,0,0,0-1.15742-4.0766A7.17712,7.17712,0,0,0,70.64709,87.608Z" class="color1487c5 svgShape"/><path fill="#395062" d="M108.47821,95.48949,88.4284,52.63333l.24575-1.31069L95.027,17.37112a5.12282,5.12282,0,0,0-3.26858-5.68931L65.99068,1.69172a5.48482,5.48482,0,0,0-6.07023,1.44589,5.20976,5.20976,0,0,0-1.25337,3.07608l-.58165,7.2171-16.69109-2.945a5.48462,5.48462,0,0,0-3.2522.41777,5.14938,5.14938,0,0,0-1.44177.95847,5.05034,5.05034,0,0,0-1.54829,4.49327l5.52546,33.60337L19.52186,95.48949a21.94289,21.94289,0,0,0,19.91052,31.19084H88.57175a21.9389,21.9389,0,0,0,19.90647-31.19084Zm-51.21605-71.745-.2171,2.773A5.213,5.213,0,0,0,61.96023,32.047c.13927.01227.27032.01637.4096.01637a5.27558,5.27558,0,0,0,5.32886-4.75952l1.069-13.443,14.97487,5.804L78.56939,47.26351a28.40877,28.40877,0,0,1-27.34879.98714L46.883,21.91764ZM64,109.65747A20.6478,20.6478,0,1,1,84.64783,89.00966,20.66916,20.66916,0,0,1,64,109.65747Z" class="color395062 svgShape"/></svg></svg>