<svg
    xmlns="http://www.w3.org/2000/svg"
    viewBox="0 0 500 500"
    id="vector">
    <path
        id="path"
        d="M 372.49 28.47 L 367.25 83.69 C 367.111 84.587 367.324 85.505 367.843 86.249 C 368.363 86.994 369.15 87.51 370.04 87.69 L 458.46 101 C 459.398 101.089 460.335 100.802 461.062 100.202 C 461.789 99.603 462.249 98.738 462.34 97.8 L 468.78 55.17 C 468.957 54.249 468.765 53.295 468.245 52.515 C 467.725 51.735 466.918 51.191 466 51 L 411.56 43.17 C 411.116 43.103 410.691 42.943 410.314 42.7 C 409.937 42.456 409.615 42.136 409.37 41.76 L 401.49 29.95 C 401.248 29.574 400.93 29.253 400.556 29.009 C 400.182 28.764 399.761 28.601 399.32 28.53 L 376.4 25.05 C 375.754 24.993 375.104 25.113 374.52 25.395 C 373.936 25.677 373.439 26.112 373.082 26.653 C 372.724 27.194 372.52 27.822 372.49 28.47 Z"
        fill="#ebebeb"
        stroke-width="1"/>
    <path
        id="path_1"
        d="M 373.71 30.38 L 470.324 44.974 L 460.602 109.334 L 363.988 94.74 Z"
        fill="#f5f5f5"
        stroke-width="1"/>
    <path
        id="path_2"
        d="M 365.15 35 L 362.38 103.23 C 362.33 103.782 362.487 104.333 362.819 104.776 C 363.151 105.219 363.636 105.523 364.18 105.63 L 458.34 119.87 C 458.909 119.922 459.478 119.758 459.933 119.412 C 460.388 119.067 460.697 118.562 460.8 118 L 475.68 51.61 C 475.795 51.203 475.797 50.773 475.685 50.365 C 475.572 49.957 475.35 49.588 475.043 49.298 C 474.735 49.008 474.353 48.808 473.94 48.72 L 367.67 32.68 C 367.241 32.645 366.811 32.729 366.427 32.924 C 366.043 33.118 365.721 33.415 365.495 33.781 C 365.27 34.148 365.15 34.57 365.15 35 Z M 216.91 373 L 205 411.3 C 204.78 411.932 204.812 412.625 205.089 413.234 C 205.367 413.843 205.869 414.322 206.49 414.57 L 270.24 438.57 C 270.676 438.722 271.145 438.755 271.598 438.667 C 272.051 438.58 272.473 438.374 272.821 438.07 C 273.169 437.767 273.431 437.377 273.58 436.94 L 284.58 407.72 C 284.757 407.29 284.817 406.821 284.754 406.361 C 284.691 405.9 284.508 405.464 284.223 405.097 C 283.938 404.73 283.561 404.445 283.13 404.27 L 243.83 389.77 C 243.511 389.654 243.219 389.472 242.975 389.236 C 242.73 389 242.538 388.715 242.41 388.4 L 238.27 378.72 C 238.14 378.411 237.949 378.131 237.709 377.897 C 237.468 377.663 237.183 377.481 236.87 377.36 L 220.34 371.14 C 219.876 370.979 219.377 370.95 218.897 371.057 C 218.418 371.164 217.978 371.403 217.627 371.746 C 217.276 372.089 217.028 372.523 216.91 373 Z"
        fill="#ebebeb"
        stroke-width="1"/>
    <path
        id="path_3"
        d="M 217.565 374.522 L 287.218 400.758 L 270.605 444.863 L 200.952 418.627 Z"
        fill="#f5f5f5"
        stroke-width="1"/>
    <path
        id="path_4"
        d="M 210.49 376.39 L 198.49 424.39 C 198.384 424.788 198.428 425.211 198.612 425.579 C 198.796 425.947 199.108 426.236 199.49 426.39 L 267.35 452 C 267.751 452.141 268.192 452.125 268.581 451.954 C 268.971 451.783 269.282 451.471 269.45 451.08 L 290.2 406.37 C 290.339 406.091 290.399 405.779 290.373 405.468 C 290.347 405.157 290.236 404.86 290.052 404.608 C 289.868 404.356 289.618 404.159 289.33 404.04 L 212.71 375.17 C 212.408 375.068 212.084 375.052 211.774 375.124 C 211.464 375.195 211.179 375.352 210.953 375.575 C 210.726 375.799 210.566 376.081 210.49 376.39 Z M 43.7 52 L 46.38 95.46 C 46.426 96.205 46.755 96.905 47.299 97.416 C 47.844 97.927 48.563 98.211 49.31 98.21 L 127.53 98.21 C 128.309 98.21 129.058 97.9 129.609 97.349 C 130.16 96.798 130.47 96.049 130.47 95.27 L 130.47 61.45 C 130.47 60.927 130.331 60.414 130.066 59.962 C 129.802 59.511 129.422 59.139 128.965 58.884 C 128.509 58.628 127.993 58.499 127.47 58.51 L 79.37 58.82 C 78.61 58.822 77.878 58.528 77.33 58 L 69 49.74 C 68.45 49.201 67.71 48.899 66.94 48.9 L 46.63 48.9 C 46.095 48.897 45.57 49.041 45.112 49.316 C 44.653 49.592 44.279 49.987 44.03 50.461 C 43.781 50.934 43.667 51.466 43.7 52 Z"
        fill="#ebebeb"
        stroke-width="1"/>
    <path
        id="path_5"
        d="M 45 53.38 L 130.47 53.38 L 130.47 104.45 L 45 104.45 Z"
        fill="#f5f5f5"
        stroke-width="1"/>
    <g id="group">
        <path
            id="path_10"
            d="M 97.94 71.81 L 429.77 71.81 L 429.77 363.63 L 97.94 363.63 Z"
            fill="#ffffff"
            stroke-width="1"/>
        <path
            id="path_11"
            d="M 429.77 363.63 C 429.77 361.78 429.69 247.45 429.55 71.81 L 429.77 72.03 L 98 72.07 L 98.26 71.81 L 98.26 363.63 L 98.03 363.4 L 429.86 363.63 L 98.03 363.86 L 97.8 363.86 L 97.8 363.63 L 97.8 71.55 L 430 71.55 L 430 71.77 C 429.86 247.46 429.78 361.78 429.77 363.63 Z"
            fill="#263238"
            stroke-width="1"/>
        <path
            id="path_12"
            d="M 169.23 146.44 L 169.23 198.78 L 232.85 198.78 L 232.85 146.44 C 232.85 145.244 232.375 144.096 231.529 143.251 C 230.684 142.405 229.536 141.93 228.34 141.93 L 173.75 141.93 C 172.957 141.928 172.178 142.136 171.491 142.531 C 170.804 142.926 170.233 143.496 169.836 144.182 C 169.439 144.868 169.23 145.647 169.23 146.44 Z"
            fill="#0a3fb5"
            stroke-width="1"/>
        <path
            id="path_13"
            d="M 156.46 236 L 170.67 196.91 L 232.85 198.77 L 223.58 234.42 C 223.401 235.106 222.995 235.713 222.429 236.141 C 221.863 236.569 221.169 236.794 220.46 236.78 L 204.36 236.44 L 201.71 240.19 C 201.37 240.678 200.912 241.071 200.379 241.334 C 199.845 241.596 199.254 241.719 198.66 241.69 L 159.74 240.05 C 159.083 240.017 158.449 239.8 157.91 239.423 C 157.372 239.046 156.95 238.525 156.693 237.92 C 156.437 237.315 156.356 236.649 156.46 236 Z"
            fill="#0a3fb5"
            stroke-width="1"/>
        <path
            id="path_14"
            d="M 172.64 151.14 L 172.64 192.1 L 228.56 195.18 L 228.31 151.14 L 172.64 151.14 Z"
            fill="#f5f5f5"
            stroke-width="1"/>
        <path
            id="path_15"
            d="M 172.64 151.14 L 176.65 151.14 L 188 151 L 228.29 150.89 L 228.52 150.89 L 228.52 151.12 C 228.59 163.89 228.68 178.42 228.78 193.78 L 228.78 195.43 L 228.5 195.43 L 172.59 192.3 L 172.39 192.3 L 172.39 192.1 C 172.39 179.68 172.46 169.44 172.48 162.29 C 172.48 158.74 172.48 155.95 172.54 154.02 L 172.54 151.86 L 172.54 151.14 L 172.54 154.07 C 172.54 155.98 172.54 158.75 172.6 162.29 C 172.6 169.44 172.66 179.68 172.69 192.1 L 172.49 191.89 L 228.41 194.89 L 228.14 195.15 L 228.14 193.77 C 228.06 178.42 227.99 163.88 227.93 151.11 L 228.16 151.35 L 188.02 151.23 L 176.6 151.17 L 172.81 151.17 Z"
            fill="#263238"
            stroke-width="1"/>
        <path
            id="path_16"
            d="M 175.57 161.36 C 175.62 160 175.57 154.14 175.57 154.14 C 191.2 154.14 208.71 154.2 224.34 154.14 C 224.78 161.88 224.87 172.32 225.34 180.06"
            fill="#ebebeb"
            stroke-width="1"/>
        <path
            id="path_17"
            d="M 225.31 180.07 C 225.264 179.911 225.24 179.746 225.24 179.58 C 225.24 179.21 225.17 178.74 225.13 178.16 C 225.04 176.92 224.95 175.1 224.85 172.81 C 224.63 168.23 224.51 161.75 224.1 154.17 L 224.34 154.39 L 209.34 154.39 C 195.34 154.39 182.96 154.39 175.6 154.27 L 175.74 154.12 C 175.74 156.36 175.69 158.12 175.67 159.44 L 175.67 160.85 C 175.68 161.013 175.68 161.177 175.67 161.34 C 175.647 161.178 175.647 161.012 175.67 160.85 L 175.67 159.44 C 175.67 158.15 175.67 156.36 175.6 154.12 L 175.6 154 L 175.75 154 C 183.11 153.93 195.47 153.89 209.49 153.9 L 224.72 153.9 L 224.72 154.13 C 225.09 161.73 225.15 168.21 225.28 172.79 C 225.34 175.04 225.39 176.85 225.43 178.14 L 225.43 179.56 C 225.402 179.733 225.362 179.903 225.31 180.07 Z"
            fill="#e0e0e0"
            stroke-width="1"/>
        <path
            id="path_18"
            d="M 164.1 161.54 L 175.63 195.18 L 228.56 195.18 L 220.65 161.36 L 164.1 161.54 Z"
            fill="#ffffff"
            stroke-width="1"/>
        <path
            id="path_19"
            d="M 164.1 161.54 L 168.21 161.54 L 179.84 161.44 L 220.65 161.18 L 220.84 161.18 L 220.84 161.36 L 228.44 193.81 C 228.55 194.27 228.66 194.73 228.76 195.18 L 228.84 195.5 L 228.51 195.5 L 175.58 195.45 L 175.43 195.45 L 175.43 195.31 C 171.95 185.01 169.1 176.57 167.1 170.68 C 166.1 167.78 165.37 165.51 164.85 163.94 C 164.6 163.19 164.41 162.6 164.27 162.19 C 164.13 161.78 164.09 161.6 164.09 161.6 L 164.32 162.22 L 164.95 164 C 165.5 165.58 166.3 167.86 167.32 170.76 C 169.32 176.6 172.27 184.97 175.82 195.17 L 175.62 195.03 L 228.55 194.98 L 228.29 195.3 C 228.19 194.85 228.08 194.39 227.97 193.93 L 220.4 161.47 L 220.64 161.66 L 164.35 161.66 C 164.262 161.63 164.179 161.589 164.1 161.54 Z"
            fill="#263238"
            stroke-width="1"/>
        <path
            id="path_20"
            d="M 228.49 195.88 C 228.294 195.76 228.072 195.688 227.842 195.671 C 227.613 195.653 227.382 195.691 227.17 195.78 C 206.454 201.228 186.699 209.832 168.6 221.29 L 161.18 229.89 C 162.12 231.36 164.13 231.62 165.87 231.74 L 190.81 233.36 C 196.61 233.74 202.41 234.12 208.22 234.1 C 211.67 234.1 215.44 233.81 217.95 231.45 C 219.336 229.962 220.378 228.186 221 226.25 C 224.695 216.879 227.286 207.11 228.72 197.14 C 228.784 196.927 228.796 196.701 228.756 196.482 C 228.716 196.263 228.625 196.057 228.49 195.88 Z"
            fill="#000000"
            stroke-width="1"/>
        <path
            id="path_21"
            d="M 175.63 197.84 L 160.84 229.83 L 216.38 230.94 L 228.56 195.18 L 175.63 197.84 Z"
            fill="#f5f5f5"
            stroke-width="1"/>
        <path
            id="path_22"
            d="M 175.63 197.84 C 175.709 197.827 175.791 197.827 175.87 197.84 L 176.6 197.78 L 179.46 197.61 L 190.3 197 L 228.54 195 L 228.89 195 L 228.78 195.34 C 225.11 206.15 220.98 218.34 216.62 231.1 L 216.56 231.28 L 216.36 231.28 L 160.83 230 L 160.52 230 L 160.65 229.71 C 165.21 219.95 168.95 211.96 171.55 206.38 C 172.84 203.64 173.86 201.49 174.55 200.01 L 175.34 198.35 C 175.52 197.98 175.62 197.81 175.62 197.81 C 175.62 197.81 175.54 198.02 175.38 198.4 C 175.22 198.78 174.94 199.4 174.62 200.1 L 171.7 206.55 L 161 229.91 L 160.82 229.62 L 216.35 230.68 L 216.1 230.86 L 228.3 195.1 L 228.54 195.42 L 190.39 197.23 L 179.51 197.71 L 176.62 197.82 L 175.86 197.82 Z"
            fill="#263238"
            stroke-width="1"/>
        <path
            id="path_23"
            d="M 175.39 195.18 L 159.34 212.85 L 214.51 213.27 L 228.31 195.18 L 175.39 195.18 Z"
            fill="#fafafa"
            stroke-width="1"/>
        <path
            id="path_24"
            d="M 175.39 195.18 C 175.47 195.17 175.55 195.17 175.63 195.18 L 179.29 195.18 L 190.29 195.11 L 228.36 195.01 L 228.86 195.01 L 228.56 195.41 C 224.27 201.03 219.61 207.15 214.77 213.51 L 214.69 213.61 L 212.88 213.61 L 159.34 213 L 158.91 213 L 159.2 212.68 L 171 199.83 L 174.22 196.36 L 175.06 195.47 C 175.148 195.361 175.248 195.264 175.36 195.18 L 175.09 195.52 L 174.27 196.45 L 171.13 200 L 159.48 213 L 159.34 212.68 L 212.83 213.01 L 214.51 213.01 L 214.3 213.11 C 219.16 206.76 223.82 200.65 228.11 195.03 L 228.31 195.43 L 190.31 195.33 L 179.31 195.26 L 175.61 195.26 Z"
            fill="#263238"
            stroke-width="1"/>
        <path
            id="path_25"
            d="M 173.65 179.78 L 168.91 165.01 L 218.09 165.01 L 224.98 192.01"
            fill="#f5f5f5"
            stroke-width="1"/>
        <path
            id="path_26"
            d="M 225 192 C 224.925 191.84 224.868 191.673 224.83 191.5 C 224.72 191.13 224.59 190.65 224.42 190.04 L 222.93 184.5 L 217.87 165.06 L 218.11 165.24 L 199.7 165.24 L 168.93 165.18 L 169.11 164.92 L 172.5 175.75 C 172.87 177 173.17 177.98 173.39 178.7 L 173.61 179.48 C 173.645 179.566 173.665 179.657 173.67 179.75 C 173.621 179.669 173.584 179.581 173.56 179.49 C 173.48 179.29 173.39 179.04 173.28 178.74 L 172.28 175.81 C 171.43 173.22 170.22 169.55 168.73 165.04 L 168.65 164.79 L 168.92 164.79 L 199.69 164.72 L 218.28 164.72 L 218.28 164.9 C 220.28 172.83 221.95 179.57 223.15 184.39 C 223.72 186.74 224.15 188.62 224.5 189.96 C 224.65 190.58 224.76 191.07 224.84 191.44 C 224.912 191.621 224.965 191.808 225 192 Z"
            fill="#263238"
            stroke-width="1"/>
        <path
            id="path_27"
            d="M 202.84 177 C 202.112 176.325 201.26 175.798 200.33 175.45 C 198.49 174.89 196.5 175.8 195.02 177.04 C 193.54 178.28 192.34 179.84 190.77 180.96 L 208.02 181.24 Z M 211.87 171.84 C 211.25 170.91 209.2 169.76 207.87 170.62 C 207.437 170.777 207.051 171.044 206.752 171.395 C 206.452 171.745 206.248 172.167 206.16 172.62 C 206.117 173.276 206.281 173.93 206.627 174.489 C 206.973 175.048 207.485 175.485 208.092 175.739 C 208.698 175.993 209.369 176.052 210.01 175.907 C 210.652 175.762 211.232 175.42 211.67 174.93 C 212.023 174.501 212.232 173.972 212.268 173.417 C 212.304 172.863 212.165 172.311 211.87 171.84 Z"
            fill="#ffffff"
            stroke-width="1"/>
        <path
            id="path_28"
            d="M 175.39 195.18 L 158.84 179.78 L 213 180.22 L 228.56 195.18 L 175.39 195.18 Z"
            fill="#fafafa"
            stroke-width="1"/>
        <path
            id="path_29"
            d="M 175.39 195.18 C 175.476 195.172 175.564 195.172 175.65 195.18 L 179.42 195.18 L 190.47 195.11 L 228.6 195.01 L 228.42 195.44 L 212.86 180.44 L 213.04 180.52 L 212.04 180.52 L 158.84 180 L 158.97 179.68 L 171 191 L 174.27 194.1 L 175.12 194.92 C 175.221 195.013 175.314 195.113 175.4 195.22 C 175.291 195.149 175.19 195.065 175.1 194.97 C 174.88 194.78 174.59 194.53 174.23 194.2 L 170.91 191.2 L 158.72 179.97 L 158.37 179.65 L 158.85 179.65 L 212 180 L 213.11 180 L 213.18 180.07 L 228.73 195.07 L 229.17 195.5 L 228.56 195.5 L 190.35 195.4 L 179.35 195.33 L 175.67 195.33 C 175.569 195.295 175.475 195.245 175.39 195.18 Z"
            fill="#263238"
            stroke-width="1"/>
        <path
            id="path_30"
            d="M 208.52 185.7 C 208.52 185.84 200.52 185.96 190.77 185.96 C 181.02 185.96 173 185.84 173 185.7 C 173 185.56 180.95 185.44 190.75 185.44 C 200.55 185.44 208.52 185.55 208.52 185.7 Z M 212.45 189.36 C 212.45 189.5 204.5 189.62 194.7 189.62 C 184.9 189.62 177 189.5 177 189.36 C 177 189.22 184.94 189.1 194.75 189.1 C 204.56 189.1 212.45 189.22 212.45 189.36 Z M 216 192.89 C 216 193.03 208.05 193.15 198.25 193.15 C 188.45 193.15 180.49 193.03 180.49 192.89 C 180.49 192.75 188.44 192.63 198.25 192.63 C 208.06 192.63 216 192.74 216 192.89 Z M 211.55 207 C 211.55 207.14 203.35 207.26 193.23 207.26 C 183.11 207.26 174.91 207.14 174.91 207 C 174.91 206.86 183.11 206.74 193.23 206.74 C 203.35 206.74 211.55 206.89 211.55 207 Z M 215.72 202.87 C 215.72 203.01 207.52 203.13 197.4 203.13 C 187.28 203.13 179.08 203.01 179.08 202.87 C 179.08 202.73 187.28 202.61 197.4 202.61 C 207.52 202.61 215.72 202.72 215.72 202.87 Z M 430.74 101.74 C 430.74 101.88 357.06 102 266.2 102 C 175.34 102 101.65 101.88 101.65 101.74 C 101.65 101.6 175.31 101.48 266.2 101.48 C 357.09 101.48 430.74 101.6 430.74 101.74 Z"
            fill="#263238"
            stroke-width="1"/>
        <path
            id="path_31"
            d="M 120.53 88.08 C 120.53 88.984 120.17 89.852 119.531 90.491 C 118.892 91.13 118.024 91.49 117.12 91.49 C 116.216 91.49 115.348 91.13 114.709 90.491 C 114.07 89.852 113.71 88.984 113.71 88.08 C 113.71 87.176 114.07 86.308 114.709 85.669 C 115.348 85.03 116.216 84.67 117.12 84.67 C 118.024 84.67 118.892 85.03 119.531 85.669 C 120.17 86.308 120.53 87.176 120.53 88.08 Z M 131.71 88.08 C 131.71 88.984 131.35 89.852 130.711 90.491 C 130.072 91.13 129.204 91.49 128.3 91.49 C 127.396 91.49 126.528 91.13 125.889 90.491 C 125.25 89.852 124.89 88.984 124.89 88.08 C 124.89 87.176 125.25 86.308 125.889 85.669 C 126.528 85.03 127.396 84.67 128.3 84.67 C 129.204 84.67 130.072 85.03 130.711 85.669 C 131.35 86.308 131.71 87.176 131.71 88.08 Z M 142.89 88.08 C 142.89 88.984 142.53 89.852 141.891 90.491 C 141.252 91.13 140.384 91.49 139.48 91.49 C 138.576 91.49 137.708 91.13 137.069 90.491 C 136.43 89.852 136.07 88.984 136.07 88.08 C 136.07 87.176 136.43 86.308 137.069 85.669 C 137.708 85.03 138.576 84.67 139.48 84.67 C 140.384 84.67 141.252 85.03 141.891 85.669 C 142.53 86.308 142.89 87.176 142.89 88.08 Z"
            fill="#0a3fb5"
            stroke-width="1"/>
        <path
            id="path_35"
            d="M 149.46 220.39 C 149.354 220.183 149.26 219.969 149.18 219.75 C 149.01 219.33 148.75 218.75 148.46 217.89 C 147.86 216.27 147.06 213.89 146.23 210.89 C 143.96 203.104 143.05 194.985 143.54 186.89 C 143.882 182.458 144.797 178.088 146.26 173.89 C 147.457 170.451 149.079 167.176 151.09 164.14 C 152.443 162.096 153.997 160.193 155.73 158.46 C 156.32 157.83 156.85 157.41 157.19 157.1 C 157.354 156.935 157.535 156.787 157.73 156.66 C 157.592 156.849 157.434 157.023 157.26 157.18 C 156.95 157.51 156.44 157.95 155.87 158.6 C 154.208 160.376 152.711 162.301 151.4 164.35 C 149.45 167.382 147.875 170.639 146.71 174.05 C 145.285 178.238 144.394 182.589 144.06 187 C 143.589 195.028 144.44 203.078 146.58 210.83 C 147.37 213.83 148.12 216.19 148.66 217.83 C 148.91 218.61 149.12 219.24 149.28 219.72 C 149.361 219.937 149.422 220.161 149.46 220.39 Z"
            fill="#263238"
            stroke-width="1"/>
        <path
            id="path_36"
            d="M 303.52 152.4 L 303.52 204.73 L 367.13 204.73 L 367.13 152.4 C 367.13 151.204 366.655 150.056 365.809 149.211 C 364.964 148.365 363.816 147.89 362.62 147.89 L 308 147.89 C 306.809 147.895 305.667 148.373 304.827 149.219 C 303.988 150.064 303.517 151.209 303.52 152.4 Z"
            fill="#0a3fb5"
            stroke-width="1"/>
        <path
            id="path_37"
            d="M 303.52 152.4 L 303.52 204.73 L 367.13 204.73 L 367.13 152.4 C 367.13 151.204 366.655 150.056 365.809 149.211 C 364.964 148.365 363.816 147.89 362.62 147.89 L 308 147.89 C 306.809 147.895 305.667 148.373 304.827 149.219 C 303.988 150.064 303.517 151.209 303.52 152.4 Z"
            fill="#000000"
            stroke-width="1"/>
        <path
            id="path_38"
            d="M 306.5 176.31 L 306.92 157.09 L 362.59 157.09 L 362.59 168.06"
            fill="#f5f5f5"
            stroke-width="1"/>
        <path
            id="path_39"
            d="M 362.59 168.06 C 362.575 167.81 362.575 167.56 362.59 167.31 L 362.59 165.15 C 362.59 163.22 362.54 160.49 362.51 157.1 L 362.68 157.27 L 330.68 157.36 L 306.97 157.31 L 307.19 157.1 C 307.03 162.86 306.89 167.65 306.79 171.1 C 306.73 172.74 306.68 174.04 306.65 174.99 C 306.65 175.41 306.65 175.74 306.59 175.99 C 306.607 176.106 306.607 176.224 306.59 176.34 C 306.575 176.224 306.575 176.106 306.59 175.99 L 306.59 174.99 L 306.59 171.1 C 306.64 167.69 306.72 162.9 306.81 157.1 L 306.81 156.89 L 330.73 156.89 L 362.73 156.98 L 362.91 156.98 L 362.91 157.16 C 362.91 160.55 362.85 163.28 362.84 165.21 C 362.84 166.12 362.84 166.84 362.79 167.37 C 362.742 167.605 362.675 167.836 362.59 168.06 Z"
            fill="#263238"
            stroke-width="1"/>
        <path
            id="path_40"
            d="M 310.55 151.9 L 359.19 151.9 L 359.19 157.09 L 310.55 157.09 Z"
            fill="#f5f5f5"
            stroke-width="1"/>
        <path
            id="path_41"
            d="M 310.55 151.9 L 314.24 151.9 L 324.52 151.82 L 359.18 151.71 L 359.44 151.71 L 359.44 157.16 L 359.17 157.43 L 329.94 157.43 L 310.55 157.33 L 310.44 157.33 L 310.44 157.23 Q 310.44 154.71 310.5 153.33 L 310.5 152.33 C 310.483 152.224 310.483 152.116 310.5 152.01 L 310.5 153.37 C 310.5 154.28 310.5 155.56 310.57 157.21 L 310.46 157.09 L 329.85 156.99 L 359.08 156.99 C 358.97 157.11 359.35 156.74 358.83 157.25 L 358.83 151.9 L 359.09 152.16 L 324.62 152.05 L 314.37 152 L 310.81 152 Z M 364.84 217.83 C 364.84 217.98 352.69 218.09 337.7 218.09 C 322.71 218.09 310.55 217.98 310.55 217.83 C 310.55 217.68 322.7 217.57 337.7 217.57 C 352.7 217.57 364.84 217.69 364.84 217.83 Z"
            fill="#263238"
            stroke-width="1"/>
        <path
            id="path_42"
            d="M 298.62 166.86 L 303.52 204.73 L 367.13 204.73 L 367.13 168.06 L 338.24 168.06 L 332.64 163.13 L 301.9 163.13 C 301.272 163.131 300.656 163.31 300.126 163.647 C 299.596 163.985 299.173 164.466 298.906 165.035 C 298.64 165.604 298.54 166.237 298.62 166.86 Z"
            fill="#0a3fb5"
            stroke-width="1"/>
        <path
            id="path_43"
            d="M 349.62 182.89 C 349.62 183.03 342.62 183.15 334.06 183.15 C 325.5 183.15 318.51 183.03 318.51 182.89 C 318.51 182.75 325.51 182.63 334.06 182.63 C 342.61 182.63 349.62 182.75 349.62 182.89 Z M 349.62 186.62 C 349.62 186.76 342.62 186.88 334.06 186.88 C 325.5 186.88 318.51 186.76 318.51 186.62 C 318.51 186.48 325.51 186.36 334.06 186.36 C 342.61 186.36 349.62 186.47 349.62 186.62 Z"
            fill="#263238"
            stroke-width="1"/>
        <path
            id="path_44"
            d="M 159.34 266.07 L 159.34 318.41 L 223 318.41 L 223 266.07 C 223 264.874 222.525 263.726 221.679 262.881 C 220.834 262.035 219.686 261.56 218.49 261.56 L 163.85 261.56 C 162.654 261.56 161.506 262.035 160.661 262.881 C 159.815 263.726 159.34 264.874 159.34 266.07 Z"
            fill="#0a3fb5"
            stroke-width="1"/>
        <path
            id="path_45"
            d="M 159.34 266.07 L 159.34 318.41 L 223 318.41 L 223 266.07 C 223 264.874 222.525 263.726 221.679 262.881 C 220.834 262.035 219.686 261.56 218.49 261.56 L 163.85 261.56 C 162.654 261.56 161.506 262.035 160.661 262.881 C 159.815 263.726 159.34 264.874 159.34 266.07 Z"
            fill="#000000"
            stroke-width="1"/>
        <path
            id="path_46"
            d="M 162.32 289.99 L 162.75 270.77 L 218.41 270.77 L 218.41 281.74"
            fill="#f5f5f5"
            stroke-width="1"/>
        <path
            id="path_47"
            d="M 218.41 281.74 C 218.393 281.49 218.393 281.24 218.41 280.99 C 218.41 280.45 218.41 279.74 218.36 278.83 C 218.36 276.9 218.36 274.17 218.28 270.77 L 218.45 270.95 L 186.45 271.03 L 162.75 271.03 L 162.96 270.82 C 162.8 276.58 162.66 281.37 162.56 284.82 C 162.5 286.46 162.45 287.76 162.42 288.71 L 162.42 289.71 C 162.42 289.96 162.42 290.06 162.37 290.06 C 162.355 289.944 162.355 289.826 162.37 289.71 L 162.37 288.71 L 162.37 284.82 C 162.43 281.42 162.5 276.63 162.59 270.82 L 162.59 270.61 L 162.81 270.61 L 186.51 270.56 L 218.51 270.65 L 218.69 270.65 L 218.69 270.82 C 218.69 274.22 218.63 276.95 218.61 278.88 L 218.61 281.04 C 218.569 281.28 218.502 281.515 218.41 281.74 Z"
            fill="#263238"
            stroke-width="1"/>
        <path
            id="path_48"
            d="M 166.37 265.58 L 215.01 265.58 L 215.01 270.77 L 166.37 270.77 Z"
            fill="#f5f5f5"
            stroke-width="1"/>
        <path
            id="path_49"
            d="M 166.37 265.58 L 170.06 265.58 L 180.34 265.5 L 215.01 265.39 L 215.27 265.39 L 215.27 270.84 C 214.75 271.37 215.11 270.99 214.99 271.1 L 185.77 271.1 L 166.37 270.99 L 166.26 270.99 L 166.26 270.88 C 166.26 269.21 166.31 267.88 166.32 266.99 L 166.32 265.99 C 166.31 265.884 166.31 265.776 166.32 265.67 C 166.328 265.79 166.328 265.91 166.32 266.03 L 166.32 267.03 C 166.32 267.94 166.32 269.22 166.38 270.86 L 166.27 270.75 L 185.67 270.65 L 215 270.65 C 214.89 270.77 215.28 270.4 214.76 270.91 L 214.76 265.72 L 215.02 265.98 L 180.54 265.87 L 170.2 265.79 L 166.64 265.79 Z M 220.67 331.51 C 220.67 331.65 208.51 331.77 193.52 331.77 C 178.53 331.77 166.37 331.65 166.37 331.51 C 166.37 331.37 178.52 331.25 193.52 331.25 C 208.52 331.25 220.67 331.37 220.67 331.51 Z"
            fill="#263238"
            stroke-width="1"/>
        <path
            id="path_50"
            d="M 154.44 280.54 L 159.34 318.41 L 223 318.41 L 223 281.74 L 194.06 281.74 L 188.46 276.81 L 157.73 276.81 C 157.101 276.809 156.484 276.987 155.952 277.324 C 155.42 277.661 154.996 278.142 154.728 278.712 C 154.46 279.281 154.36 279.916 154.44 280.54 Z"
            fill="#0a3fb5"
            stroke-width="1"/>
        <path
            id="path_51"
            d="M 205.45 296.57 C 205.45 296.71 198.45 296.83 189.89 296.83 C 181.33 296.83 174.33 296.71 174.33 296.57 C 174.33 296.43 181.33 296.31 189.89 296.31 C 198.45 296.31 205.45 296.43 205.45 296.57 Z M 205.45 300.29 C 205.45 300.44 198.45 300.56 189.89 300.56 C 181.33 300.56 174.33 300.44 174.33 300.29 C 174.33 300.14 181.33 300.03 189.89 300.03 C 198.45 300.03 205.45 300.15 205.45 300.29 Z"
            fill="#263238"
            stroke-width="1"/>
        <path
            id="path_52"
            d="M 311.42 266.11 L 311.42 318.44 L 375 318.44 L 375 266.11 C 375 264.914 374.525 263.766 373.679 262.921 C 372.834 262.075 371.686 261.6 370.49 261.6 L 315.89 261.6 C 314.701 261.611 313.564 262.091 312.727 262.935 C 311.89 263.779 311.42 264.921 311.42 266.11 Z"
            fill="#0a3fb5"
            stroke-width="1"/>
        <path
            id="path_53"
            d="M 311.42 266.11 L 311.42 318.44 L 375 318.44 L 375 266.11 C 375 264.914 374.525 263.766 373.679 262.921 C 372.834 262.075 371.686 261.6 370.49 261.6 L 315.89 261.6 C 314.701 261.611 313.564 262.091 312.727 262.935 C 311.89 263.779 311.42 264.921 311.42 266.11 Z"
            fill="#000000"
            stroke-width="1"/>
        <path
            id="path_54"
            d="M 314.41 290.02 L 314.83 270.81 L 370.5 270.81 L 370.5 281.77"
            fill="#f5f5f5"
            stroke-width="1"/>
        <path
            id="path_55"
            d="M 370.5 281.77 C 370.462 281.522 370.445 281.271 370.45 281.02 C 370.45 280.49 370.45 279.77 370.4 278.86 C 370.4 276.93 370.4 274.2 370.33 270.81 L 370.5 270.98 L 338.5 271.07 L 314.83 271 L 315.05 270.79 C 314.88 276.55 314.75 281.34 314.65 284.74 C 314.59 286.38 314.54 287.69 314.5 288.63 C 314.5 289.05 314.5 289.38 314.45 289.63 C 314.46 289.746 314.46 289.864 314.45 289.98 C 314.437 289.864 314.437 289.746 314.45 289.63 L 314.45 288.63 L 314.45 284.74 C 314.5 281.33 314.57 276.54 314.66 270.74 L 314.66 270.53 L 338.58 270.53 L 370.58 270.61 L 370.75 270.61 L 370.75 270.79 C 370.75 274.18 370.69 276.91 370.67 278.84 L 370.67 281 C 370.636 281.261 370.58 281.519 370.5 281.77 Z"
            fill="#263238"
            stroke-width="1"/>
        <path
            id="path_56"
            d="M 318.45 265.61 L 367.09 265.61 L 367.09 270.8 L 318.45 270.8 Z"
            fill="#f5f5f5"
            stroke-width="1"/>
        <path
            id="path_57"
            d="M 318.45 265.61 L 322.15 265.61 L 332.43 265.53 L 367.09 265.42 L 367.35 265.42 L 367.35 270.87 C 366.83 271.4 367.2 271.02 367.08 271.14 L 337.85 271.14 L 318.45 271.04 L 318.34 271.04 L 318.34 270.93 C 318.34 269.25 318.39 267.93 318.41 267.03 L 318.41 266.03 L 318.41 265.71 C 318.421 265.83 318.421 265.95 318.41 266.07 L 318.41 267.07 Q 318.41 268.43 318.47 270.91 L 318.36 270.8 L 337.76 270.69 L 366.99 270.69 C 366.88 270.8 367.26 270.43 366.74 270.94 L 366.74 265.75 L 367 266.01 L 332.53 265.9 L 322.18 265.82 L 318.63 265.82 Z M 372.75 331.54 C 372.75 331.69 360.59 331.8 345.6 331.8 C 330.61 331.8 318.45 331.69 318.45 331.54 C 318.45 331.39 330.61 331.28 345.6 331.28 C 360.59 331.28 372.75 331.4 372.75 331.54 Z"
            fill="#263238"
            stroke-width="1"/>
        <path
            id="path_58"
            d="M 306.53 280.57 L 311.42 318.44 L 375 318.44 L 375 281.77 L 346.15 281.77 L 340.54 276.84 L 309.81 276.84 C 309.181 276.838 308.565 277.017 308.034 277.354 C 307.503 277.691 307.079 278.173 306.812 278.742 C 306.546 279.312 306.448 279.946 306.53 280.57 Z"
            fill="#0a3fb5"
            stroke-width="1"/>
        <path
            id="path_59"
            d="M 357.53 296.6 C 357.53 296.75 350.53 296.86 341.97 296.86 C 333.41 296.86 326.41 296.75 326.41 296.6 C 326.41 296.45 333.41 296.34 341.97 296.34 C 350.53 296.34 357.53 296.46 357.53 296.6 Z M 357.53 300.33 C 357.53 300.47 350.53 300.59 341.97 300.59 C 333.41 300.59 326.41 300.47 326.41 300.33 C 326.41 300.19 333.41 300.07 341.97 300.07 C 350.53 300.07 357.53 300.18 357.53 300.33 Z M 139.54 182.12 C 139.497 181.765 139.497 181.405 139.54 181.05 C 139.55 180.071 139.614 179.093 139.73 178.12 C 140.115 174.909 140.908 171.76 142.09 168.75 C 143.28 165.739 144.856 162.895 146.78 160.29 C 147.356 159.501 147.974 158.743 148.63 158.02 C 148.853 157.737 149.112 157.485 149.4 157.27 C 149.47 157.33 148.47 158.48 147.07 160.51 C 143.425 165.788 141.031 171.828 140.07 178.17 C 139.7 180.6 139.64 182.13 139.54 182.12 Z"
            fill="#263238"
            stroke-width="1"/>
        <path
            id="path_60"
            d="M 142.73 178.22 C 142.79 178.27 142.49 178.74 141.97 179.47 L 141.02 180.75 C 140.83 180.99 140.65 181.24 140.45 181.48 L 140.15 181.87 L 139.99 182.07 L 139.91 182.17 L 139.91 182.22 L 139.5 182.22 C 138.682 181.33 138.062 180.277 137.68 179.13 C 137.468 178.674 137.381 178.17 137.43 177.67 C 138.019 179.191 138.846 180.609 139.88 181.87 L 139.5 181.87 L 139.5 181.82 L 139.58 181.72 L 139.74 181.52 L 140.05 181.14 L 140.65 180.42 L 141.65 179.21 C 142.28 178.57 142.68 178.18 142.73 178.22 Z"
            fill="#263238"
            stroke-width="1"/>
        <path
            id="path_61"
            d="M 351.51 224.91 C 351.51 225.05 343.88 225.17 334.51 225.17 C 325.14 225.17 317.51 225.05 317.51 224.91 C 317.51 224.77 325.13 224.65 334.51 224.65 C 343.89 224.65 351.51 224.77 351.51 224.91 Z M 360.25 337.56 C 360.25 337.7 352.63 337.82 343.25 337.82 C 333.87 337.82 326.25 337.7 326.25 337.56 C 326.25 337.42 333.87 337.3 343.25 337.3 C 352.63 337.3 360.25 337.42 360.25 337.56 Z M 201.05 339.37 C 201.05 339.51 193.43 339.63 184.05 339.63 C 174.67 339.63 167.05 339.51 167.05 339.37 C 167.05 339.23 174.67 339.11 184.05 339.11 C 193.43 339.11 201.05 339.23 201.05 339.37 Z"
            fill="#e0e0e0"
            stroke-width="1"/>
    </g>
    <g id="group_1">
        <path
            id="path_62"
            d="M 442.3 473.45 C 442.3 473.6 353.69 473.71 244.41 473.71 C 135.13 473.71 46.49 473.6 46.49 473.45 C 46.49 473.3 135.09 473.19 244.41 473.19 C 353.73 473.19 442.3 473.31 442.3 473.45 Z"
            fill="#263238"
            stroke-width="1"/>
    </g>
</svg>
