<svg
    xmlns="http://www.w3.org/2000/svg"
    viewBox="0 0 511 511"
    id="vector">
    <path
        id="path"
        d="M 91.637 52.574 L 412.93 52.574 L 412.93 47.863 C 412.93 27.23 396.203 10.5 375.567 10.5 L 73.352 10.5 C 38.364 10.5 10 38.863 10 73.852 L 10 285.754 C 10 306.387 26.727 323.117 47.364 323.117 L 52.5 323.117 L 52.5 91.711 C 52.5 70.094 70.02 52.574 91.637 52.574 Z M 91.637 52.574"
        fill="#ee4e71"/>
    <path
        id="path_1"
        d="M 99.07 291.914 L 99.07 126.93 C 99.07 108.977 113.625 94.422 131.578 94.422 L 455.43 94.422 L 455.43 89.934 C 455.43 69.301 438.703 52.575 418.067 52.575 L 91.637 52.575 C 70.02 52.575 52.5 70.094 52.5 91.711 L 52.5 327.824 C 52.5 348.461 69.227 365.187 89.864 365.187 L 99.071 365.187 Z M 99.07 291.914"
        fill="#ffd866"/>
    <path
        id="path_2"
        d="M 102.992 390.023 C 102.492 389.101 102.035 388.156 101.625 387.183 C 102.035 388.156 102.492 389.101 102.992 390.023 Z M 102.992 390.023"
        fill="#d6effb"/>
    <path
        id="path_3"
        d="M 120.402 405.066 C 119.406 404.699 118.433 404.289 117.484 403.832 C 118.433 404.289 119.406 404.699 120.402 405.066 Z M 120.402 405.066"
        fill="#d6effb"/>
    <path
        id="path_4"
        d="M 123.453 406.012 C 122.414 405.746 121.398 405.43 120.402 405.067 C 121.398 405.43 122.414 405.747 123.453 406.012 Z M 123.453 406.012"
        fill="#d6effb"/>
    <path
        id="path_5"
        d="M 499.445 387.184 C 499.035 388.157 498.574 389.102 498.074 390.024 C 498.578 389.102 499.035 388.157 499.445 387.184 Z M 499.445 387.184"
        fill="#d6effb"/>
    <path
        id="path_6"
        d="M 502 374.527 C 502 376.211 501.871 377.863 501.625 379.48 C 501.871 377.863 502 376.21 502 374.527 Z M 502 374.527"
        fill="#d6effb"/>
    <path
        id="path_7"
        d="M 501.34 381.082 C 501.121 382.137 500.856 383.18 500.539 384.195 C 500.855 383.175 501.121 382.136 501.34 381.082 Z M 501.34 381.082"
        fill="#d6effb"/>
    <path
        id="path_8"
        d="M 131.578 407.039 C 128.773 407.039 126.051 406.684 123.453 406.016 C 126.051 406.684 128.773 407.039 131.578 407.039 Z M 131.578 407.039"
        fill="#d6effb"/>
    <path
        id="path_9"
        d="M 99.07 374.527 C 99.07 376.211 99.199 377.863 99.445 379.48 C 99.195 377.863 99.07 376.21 99.07 374.527 Z M 99.07 374.527"
        fill="#d6effb"/>
    <path
        id="path_10"
        d="M 100.531 384.195 C 100.215 383.175 99.945 382.136 99.73 381.082 C 99.945 382.137 100.215 383.176 100.531 384.195 Z M 100.531 384.195"
        fill="#d6effb"/>
    <path
        id="path_11"
        d="M 116.082 403.113 C 115.16 402.613 114.266 402.07 113.402 401.484 C 114.265 402.07 115.16 402.613 116.082 403.113 Z M 116.082 403.113"
        fill="#d6effb"/>
    <path
        id="path_12"
        d="M 469.492 94.422 L 131.578 94.422 C 113.625 94.422 99.07 108.977 99.07 126.93 L 99.07 291.914 L 208.848 195.062 C 218.282 186.738 232.594 187.296 241.356 196.328 L 352.34 310.754 L 414.391 265.547 C 422.782 259.43 434.188 259.531 442.473 265.789 L 502 310.754 L 502 126.93 C 502 108.977 487.445 94.422 469.492 94.422 Z M 388.515 220.707 C 370.402 220.707 355.718 206.023 355.718 187.914 C 355.718 169.801 370.402 155.117 388.515 155.117 C 406.624 155.117 421.308 169.801 421.308 187.914 C 421.308 206.023 406.624 220.707 388.515 220.707 Z M 388.515 220.707"
        fill="#d6effb"/>
    <path
        id="path_13"
        d="M 442.473 265.789 C 434.188 259.531 422.782 259.43 414.391 265.547 L 352.34 310.754 L 241.356 196.328 C 232.594 187.297 218.286 186.738 208.848 195.062 L 99.071 291.914 L 99.071 374.527 C 99.071 376.211 99.2 377.867 99.446 379.48 C 99.528 380.015 99.622 380.55 99.731 381.082 C 99.95 382.137 100.215 383.18 100.532 384.195 C 100.848 385.215 101.216 386.211 101.626 387.183 C 102.036 388.155 102.493 389.101 102.993 390.023 C 105.497 394.628 109.079 398.566 113.403 401.484 C 114.27 402.07 115.161 402.613 116.083 403.113 C 116.544 403.363 117.013 403.601 117.485 403.832 C 118.434 404.289 119.407 404.699 120.403 405.066 C 121.399 405.429 122.415 405.746 123.454 406.011 C 126.052 406.679 128.774 407.034 131.579 407.034 L 469.493 407.034 C 481.837 407.034 492.571 400.155 498.079 390.022 C 498.579 389.1 499.036 388.155 499.446 387.178 C 499.856 386.205 500.223 385.209 500.54 384.194 C 500.856 383.174 501.126 382.135 501.341 381.077 C 501.45 380.55 501.544 380.014 501.626 379.475 C 501.872 377.862 502.001 376.209 502.001 374.526 L 502.001 310.749 Z M 442.473 265.789"
        fill="#00b7ec"/>
    <path
        id="path_14"
        d="M 421.309 187.91 C 421.309 206.023 406.625 220.707 388.516 220.707 C 370.403 220.707 355.719 206.023 355.719 187.91 C 355.719 169.801 370.403 155.117 388.516 155.117 C 406.625 155.117 421.309 169.801 421.309 187.91 Z M 421.309 187.91"
        fill="#ffd866"/>
    <path
        id="path_15"
        d="M 469.488 84.418 L 465.097 84.418 C 462.527 62.395 444.804 44.934 422.656 42.797 C 420.113 19.055 399.972 0.5 375.57 0.5 L 73.351 0.5 C 32.906 0.5 -0.001 33.406 -0.001 73.848 L -0.001 285.75 C -0.001 310.324 18.804 330.578 42.773 332.895 C 45.288 356.383 65.035 374.782 89.085 375.168 C 89.148 379.336 89.8 383.359 90.984 387.156 C 96.371 404.449 112.535 417.039 131.578 417.039 L 469.488 417.039 C 492.929 417.039 512 397.969 512 374.531 L 512 126.929 C 512 103.488 492.93 84.417 469.488 84.417 Z M 492 126.93 L 492 290.668 L 448.5 257.809 C 436.613 248.832 420.539 248.692 408.5 257.461 L 353.473 297.555 L 248.536 189.368 C 236.036 176.477 215.696 175.684 202.231 187.567 L 109.071 269.758 L 109.071 126.93 C 109.071 114.516 119.169 104.418 131.579 104.418 L 469.489 104.418 C 481.903 104.418 492.001 114.516 492.001 126.93 Z M 492 374.528 C 492 386.942 481.902 397.04 469.492 397.04 L 131.578 397.04 C 121.496 397.04 112.937 390.372 110.086 381.216 C 109.426 379.103 109.07 376.857 109.07 374.532 L 109.07 296.427 L 215.465 202.564 C 220.906 197.759 229.125 198.08 234.18 203.291 L 281.539 252.119 C 281.539 252.123 281.539 252.123 281.543 252.123 L 375.805 349.307 C 377.766 351.33 380.371 352.346 382.985 352.346 C 385.493 352.346 388.005 351.409 389.946 349.526 C 393.907 345.678 394.005 339.35 390.161 335.385 L 367.536 312.057 L 420.278 273.631 C 425.145 270.084 431.641 270.139 436.446 273.768 L 492.001 315.733 Z M 62.5 327.821 L 62.5 91.712 C 62.5 90.708 62.551 89.712 62.652 88.735 C 64.144 74.06 76.578 62.571 91.641 62.571 L 213.961 62.571 C 219.484 62.571 223.961 58.095 223.961 52.571 C 223.961 47.048 219.484 42.571 213.961 42.571 L 91.641 42.571 C 64.543 42.571 42.5 64.614 42.5 91.712 L 42.5 312.688 C 29.723 310.387 20 299.184 20 285.75 L 20 73.848 C 20 44.434 43.934 20.5 73.352 20.5 L 375.57 20.5 C 388.843 20.5 399.941 30.004 402.414 42.571 L 293.961 42.571 C 288.438 42.571 283.961 47.047 283.961 52.571 C 283.961 58.094 288.438 62.571 293.961 62.571 L 412.93 62.571 L 412.942 62.571 L 418.071 62.571 C 431.266 62.571 442.313 71.965 444.872 84.418 L 131.579 84.418 C 108.142 84.418 89.071 103.488 89.071 126.93 L 89.071 291.907 L 89.071 291.915 L 89.071 355.169 C 74.349 354.751 62.501 342.646 62.501 327.821 Z M 62.5 327.821"
        fill="#000000"/>
    <path
        id="path_16"
        d="M 388.516 145.117 C 364.914 145.117 345.719 164.316 345.719 187.91 C 345.719 211.508 364.918 230.707 388.516 230.707 C 412.11 230.707 431.309 211.508 431.309 187.91 C 431.309 164.316 412.11 145.117 388.516 145.117 Z M 388.516 210.707 C 375.946 210.707 365.719 200.48 365.719 187.914 C 365.719 175.344 375.946 165.117 388.516 165.117 C 401.082 165.117 411.309 175.344 411.309 187.914 C 411.309 200.48 401.082 210.707 388.516 210.707 Z M 388.516 210.707"
        fill="#000000"/>
    <path
        id="path_17"
        d="M 244.73 56.398 C 244.98 57 245.289 57.578 245.648 58.121 C 246.011 58.668 246.429 59.18 246.89 59.641 C 247.351 60.098 247.859 60.52 248.41 60.891 C 248.949 61.25 249.539 61.559 250.14 61.809 C 250.738 62.059 251.37 62.25 252.011 62.379 C 252.648 62.508 253.308 62.57 253.96 62.57 C 254.62 62.57 255.269 62.508 255.921 62.379 C 256.558 62.25 257.179 62.059 257.788 61.809 C 258.39 61.559 258.968 61.25 259.511 60.891 C 260.058 60.52 260.57 60.098 261.031 59.641 C 261.5 59.18 261.91 58.668 262.281 58.121 C 262.64 57.578 262.949 57 263.199 56.398 C 263.449 55.789 263.64 55.16 263.769 54.531 C 263.898 53.879 263.96 53.219 263.96 52.57 C 263.96 51.918 263.897 51.258 263.769 50.621 C 263.64 49.98 263.449 49.348 263.199 48.75 C 262.949 48.141 262.64 47.559 262.281 47.02 C 261.91 46.469 261.5 45.961 261.031 45.5 C 260.57 45.039 260.058 44.621 259.511 44.258 C 258.968 43.898 258.39 43.59 257.788 43.34 C 257.179 43.09 256.558 42.898 255.921 42.77 C 254.628 42.508 253.3 42.508 252.011 42.77 C 251.37 42.898 250.738 43.09 250.14 43.34 C 249.538 43.59 248.949 43.898 248.41 44.258 C 247.859 44.621 247.351 45.039 246.89 45.5 C 246.429 45.961 246.011 46.469 245.648 47.02 C 245.289 47.559 244.98 48.141 244.73 48.75 C 244.48 49.348 244.289 49.98 244.16 50.621 C 244.031 51.258 243.961 51.918 243.961 52.57 C 243.961 53.219 244.031 53.879 244.16 54.531 C 244.289 55.16 244.48 55.789 244.73 56.398 Z M 244.73 56.398"
        fill="#000000"/>
</svg>
