<svg xmlns="http://www.w3.org/2000/svg" xmlns:svgjs="http://svgjs.com/svgjs" xmlns:xlink="http://www.w3.org/1999/xlink" width="288" height="288"><svg xmlns="http://www.w3.org/2000/svg" width="288" height="288" data-name="Layer 1" viewBox="0 0 512 512"><path fill="#17a454" d="m263.327 510.109-.143.018a238.619 238.619 0 0 1-15.058 1.433 7.5 7.5 0 1 1-.946-14.97c4.691-.296 9.438-.748 14.108-1.343l.144-.018a7.5 7.5 0 0 1 1.895 14.88Zm29.022-5.638a7.5 7.5 0 0 1-2.845-14.696 218.918 218.918 0 0 0 13.706-4.086 7.5 7.5 0 0 1 4.756 14.226 234.38 234.38 0 0 1-14.649 4.368 7.633 7.633 0 0 1-.968.188Zm-73.313 6.975a7.518 7.518 0 0 1-1.464.043 233.16 233.16 0 0 1-15.21-1.538 7.5 7.5 0 1 1 1.997-14.866c4.71.633 9.498 1.117 14.23 1.438a7.5 7.5 0 0 1 .447 14.923Zm114.872-22.404a7.502 7.502 0 0 1-4.24-14.181 218.051 218.051 0 0 0 12.617-6.685 7.5 7.5 0 1 1 7.454 13.016 233.431 233.431 0 0 1-13.487 7.148 7.501 7.501 0 0 1-2.344.702Zm-158.61 15.048a7.467 7.467 0 0 1-2.914-.206 232.977 232.977 0 0 1-14.63-4.503 7.5 7.5 0 1 1 4.883-14.182 218.344 218.344 0 0 0 13.685 4.212 7.501 7.501 0 0 1-1.024 14.679Zm196.295-38.307a7.501 7.501 0 0 1-5.503-13.405c3.773-2.876 7.5-5.916 11.078-9.034a7.5 7.5 0 0 1 9.856 11.308 235.524 235.524 0 0 1-11.838 9.655 7.469 7.469 0 0 1-3.593 1.476Zm-237.741 22.506a7.47 7.47 0 0 1-4.289-.73 236.142 236.142 0 0 1-13.456-7.268 7.5 7.5 0 0 1 7.555-12.959 220.094 220.094 0 0 0 12.596 6.803 7.501 7.501 0 0 1-2.406 14.154ZM404.027 435.6a7.5 7.5 0 0 1-6.57-12.405 221.672 221.672 0 0 0 9.12-11.026 7.5 7.5 0 1 1 11.862 9.182 236.383 236.383 0 0 1-9.741 11.775 7.473 7.473 0 0 1-4.67 2.474ZM96.302 464.723a7.474 7.474 0 0 1-5.534-1.506c-4.01-3.1-7.974-6.374-11.781-9.733a7.5 7.5 0 1 1 9.922-11.249 222.262 222.262 0 0 0 11.032 9.114 7.5 7.5 0 0 1-3.639 13.374Zm333.693-65.043a7.5 7.5 0 0 1-7.42-11.222 220.199 220.199 0 0 0 6.81-12.591 7.5 7.5 0 0 1 13.42 6.704 235.844 235.844 0 0 1-7.276 13.45 7.486 7.486 0 0 1-5.534 3.66ZM64.05 434.333a7.494 7.494 0 0 1-6.605-2.509 235.171 235.171 0 0 1-9.662-11.832 7.5 7.5 0 0 1 11.922-9.103c2.878 3.77 5.92 7.496 9.042 11.073a7.502 7.502 0 0 1-4.697 12.37Zm384.447-74.949a7.504 7.504 0 0 1-8.032-9.888c1.549-4.49 2.969-9.093 4.221-13.683a7.5 7.5 0 0 1 14.471 3.947 233.33 233.33 0 0 1-4.512 14.627 7.501 7.501 0 0 1-6.148 4.997Zm-410.16 38.88a7.502 7.502 0 0 1-7.456-3.709 233.213 233.213 0 0 1-7.156-13.482A7.5 7.5 0 1 1 37.2 374.48a218.221 218.221 0 0 0 6.694 12.611 7.505 7.505 0 0 1-5.555 11.174Zm420.428-82.039a7.506 7.506 0 0 1-8.386-8.446 218.329 218.329 0 0 0 1.448-14.226 7.5 7.5 0 1 1 14.964 1.025 233.104 233.104 0 0 1-1.547 15.21 7.503 7.503 0 0 1-6.48 6.437ZM20.184 357.853a7.502 7.502 0 0 1-8.051-5.06 233.879 233.879 0 0 1-4.377-14.646 7.5 7.5 0 0 1 14.506-3.821 218.758 218.758 0 0 0 4.094 13.704 7.505 7.505 0 0 1-6.172 9.823Zm440.168-85.923a7.52 7.52 0 0 1-.488.047 7.5 7.5 0 0 1-7.952-7.02c-.295-4.73-.75-9.522-1.351-14.245l-.072-.557a7.5 7.5 0 0 1 6.47-8.403l.02-.003a7.5 7.5 0 0 1 8.385 6.474l.074.575a238.104 238.104 0 0 1 1.445 15.227 7.5 7.5 0 0 1-6.53 7.905ZM10.297 314.65a7.5 7.5 0 0 1-8.387-6.492l-.037-.287A237.85 237.85 0 0 1 .45 292.959a7.5 7.5 0 1 1 14.97-.95c.294 4.634.743 9.333 1.333 13.966l.037.287a7.5 7.5 0 0 1-6.493 8.388Zm-1.357-44.3a7.505 7.505 0 0 1-8.439-7.944 233.32 233.32 0 0 1 1.528-15.211 7.5 7.5 0 0 1 14.868 1.99c-.63 4.703-1.11 9.49-1.43 14.229a7.502 7.502 0 0 1-6.527 6.936Zm7.32-43.729a7.505 7.505 0 0 1-8.184-9.406 233.557 233.557 0 0 1 4.494-14.633 7.5 7.5 0 1 1 14.186 4.873 218.383 218.383 0 0 0-4.203 13.688 7.503 7.503 0 0 1-6.293 5.478Zm15.77-41.453a7.5 7.5 0 0 1-7.655-10.784 234.934 234.934 0 0 1 7.26-13.46 7.5 7.5 0 0 1 12.962 7.546 219.9 219.9 0 0 0-6.794 12.599 7.492 7.492 0 0 1-5.773 4.1Zm23.547-37.572a7.5 7.5 0 0 1-6.885-12.022 235.743 235.743 0 0 1 9.727-11.788 7.5 7.5 0 1 1 11.253 9.917 220.7 220.7 0 0 0-9.106 11.036 7.474 7.474 0 0 1-4.99 2.857Zm30.376-32.278a7.5 7.5 0 0 1-5.889-13.088 235.454 235.454 0 0 1 11.825-9.668A7.5 7.5 0 1 1 101 104.476a220.78 220.78 0 0 0-11.068 9.05 7.469 7.469 0 0 1-3.98 1.792Zm36.049-25.73a7.502 7.502 0 0 1-4.687-13.946 233.26 233.26 0 0 1 13.48-7.163 7.5 7.5 0 1 1 6.599 13.47 217.848 217.848 0 0 0-12.607 6.701 7.478 7.478 0 0 1-2.785.938ZM264.619 61.57a7.499 7.499 0 0 1-1.942-.006 218.769 218.769 0 0 0-14.231-1.42 7.5 7.5 0 0 1 .998-14.967c5.068.338 10.186.848 15.212 1.517a7.501 7.501 0 0 1-.036 14.876ZM162.392 71.42a7.5 7.5 0 0 1-3.327-14.552 233.84 233.84 0 0 1 14.642-4.386 7.5 7.5 0 0 1 3.832 14.503 218.295 218.295 0 0 0-13.701 4.103 7.486 7.486 0 0 1-1.446.332Zm57.934-11.35a7.78 7.78 0 0 1-.473.045c-4.589.295-9.241.741-13.828 1.325l-.43.056a7.5 7.5 0 0 1-1.896-14.88l.38-.049c4.946-.63 9.912-1.106 14.811-1.421a7.5 7.5 0 0 1 1.436 14.923Z" class="color17a454 svgShape"/><circle cx="233.657" cy="278.343" r="168.936" fill="#fed947" class="colorfed947 svgShape"/><path fill="#fecc30" d="M233.657 109.407a169.75 169.75 0 0 0-22.5 1.502c82.552 11.036 146.436 81.91 146.436 167.434S293.71 434.742 211.157 445.778a169.71 169.71 0 0 0 22.5 1.502c93.152 0 168.936-75.785 168.936-168.937 0-93.152-75.784-168.936-168.936-168.936Z" class="colorfecc30 svgShape"/><path fill="#f8be32" d="M233.657 454.78c-97.288 0-176.437-79.15-176.437-176.437s79.15-176.436 176.437-176.436 176.436 79.149 176.436 176.436-79.149 176.436-176.436 176.436Zm0-337.873c-89.017 0-161.437 72.42-161.437 161.436s72.42 161.436 161.437 161.436 161.436-72.42 161.436-161.436-72.42-161.436-161.436-161.436Z" class="colorf8be32 svgShape"/><path fill="#fed947" d="M280.717 211.483h-94.12a7.5 7.5 0 0 1 0-15h94.12a7.5 7.5 0 0 1 0 15zm0 51.34h-94.12a7.5 7.5 0 1 1 0-15h94.12a7.5 7.5 0 0 1 0 15z" class="colorfff svgShape"/><path fill="#fed947" d="M255.03 384.937a7.48 7.48 0 0 1-5.425-2.32l-68.151-71.351a7.5 7.5 0 0 1 2.6-12.13l.497-.201a7.503 7.503 0 0 1 2.824-.552h16.597a43.45 43.45 0 0 0-.001-86.9h-16.596a7.5 7.5 0 0 1 0-15h16.596a58.45 58.45 0 0 1 .247 116.899l56.234 58.874a7.5 7.5 0 0 1-5.423 12.68Z" class="colorfff svgShape"/><circle cx="401.04" cy="110.96" r="103.46" fill="#56bc8d" class="color56bc8d svgShape"/><path fill="#24b378" d="M401.04 7.5a104.29 104.29 0 0 0-15 1.086 103.468 103.468 0 0 1 0 204.748 103.463 103.463 0 1 0 15-205.834Z" class="color24b378 svgShape"/><path fill="#17a454" d="M401.04 221.92A110.96 110.96 0 1 1 512 110.96a111.086 111.086 0 0 1-110.96 110.96Zm0-206.92A95.96 95.96 0 1 0 497 110.96 96.07 96.07 0 0 0 401.04 15Z" class="color17a454 svgShape"/><path fill="#fed947" d="M443.54 64.46h-85a7.5 7.5 0 0 1 0-15h85a7.5 7.5 0 1 1 0 15zm0 108h-85a7.5 7.5 0 0 1 0-15h85a7.5 7.5 0 0 1 0 15z" class="colorfff svgShape"/><path fill="#fed947" d="M401.04 118.46a7.496 7.496 0 0 1-3.748-1.004l-20.997-12.113a17.548 17.548 0 0 1-8.755-15.158V56.96a7.5 7.5 0 0 1 7.5-7.5h52a7.5 7.5 0 0 1 7.5 7.5v33.225a17.547 17.547 0 0 1-8.755 15.158l-20.997 12.113a7.498 7.498 0 0 1-3.748 1.004Zm-18.5-54v25.725a2.508 2.508 0 0 0 1.251 2.166l17.249 9.95 17.249-9.95a2.507 2.507 0 0 0 1.251-2.166V64.46Zm39.497 34.387Z" class="colorfff svgShape"/><path fill="#fed947" d="M427.04 172.46h-52a7.5 7.5 0 0 1-7.5-7.5v-33.225a17.546 17.546 0 0 1 8.755-15.158l20.997-12.113a7.504 7.504 0 0 1 7.496 0l20.997 12.114a17.543 17.543 0 0 1 8.755 15.157v33.225a7.5 7.5 0 0 1-7.5 7.5Zm-44.5-15h37v-25.725a2.505 2.505 0 0 0-1.25-2.164h-.001l-17.249-9.952-17.25 9.951a2.506 2.506 0 0 0-1.25 2.165Z" class="colorfff svgShape"/></svg></svg>