<svg xmlns="http://www.w3.org/2000/svg" viewBox="0 0 32 32"><g data-name="Waiting room"><path fill="#9f85ec" d="M25,14a7,7,0,1,1,7-7A7,7,0,0,1,25,14ZM25,2a5,5,0,1,0,5,5A5,5,0,0,0,25,2Z"/><path fill="#9f85ec" d="M24,9a1,1,0,0,1-.71-1.71l.71-.7V5a1,1,0,0,1,2,0c0,2.19.08,2.34-.29,2.71C24.65,8.77,24.52,9,24,9Z"/><path fill="#38004d" d="M31,30H30V19a2,2,0,0,0-2-2H24a2,2,0,0,0-2,2V30H17V28h1a2,2,0,0,0,2-2V24a2,2,0,0,0-2-2H16V20h2a1,1,0,0,0,1-1V15a3,3,0,0,0-3-3H10a1,1,0,0,0,0,2h6a1,1,0,0,1,1,1v3H3V15a1,1,0,0,1,1-1H6a1,1,0,0,0,0-2H4a3,3,0,0,0-3,3v4a1,1,0,0,0,1,1H4v2H2a2,2,0,0,0-2,2v2a2,2,0,0,0,2,2H3v2H1a1,1,0,0,0,0,2H31a1,1,0,0,0,0-2ZM6,20h8v2H6ZM2,24H18v2H2Zm3,4H15v2H5Zm19,2V19h4V30Z"/></g></svg>