<svg xmlns="http://www.w3.org/2000/svg" enable-background="new 0 0 512 512" viewBox="0 0 512 512"><path fill="#e1e4e6" fill-rule="evenodd" d="M270.086,41.776c9.605,1.887,18.53,5.667,26.375,10.933l14.065-6.247l12.109,12.108l-6.245,14.061
				c5.268,7.845,9.048,16.774,10.935,26.381l14.35,5.523v17.124l-14.353,5.525c-1.887,9.606-5.667,18.53-10.934,26.375l6.247,14.065
				l-12.108,12.108l-14.061-6.245c-7.845,5.268-16.774,9.048-26.381,10.935l-5.523,14.349h-17.123l-5.525-14.353
				c-9.605-1.887-18.53-5.667-26.375-10.933l-14.065,6.247l-12.109-12.108l6.245-14.061c-5.268-7.845-9.048-16.774-10.935-26.381
				l-14.349-5.522v-17.124l14.352-5.525c1.887-9.606,5.667-18.533,10.934-26.376l-6.246-14.064l12.108-12.108l14.065,6.247
				c7.845-5.266,16.77-9.047,26.376-10.933l5.524-14.353h17.124L270.086,41.776L270.086,41.776z M256,72.833
				c-22.238,0-40.265,18.027-40.265,40.265c0,22.238,18.027,40.265,40.265,40.265c22.238,0,40.265-18.027,40.265-40.265
				C296.265,90.86,278.237,72.833,256,72.833z" clip-rule="evenodd"/><path fill="#d1d1d6" fill-rule="evenodd" d="M270.086,41.776c9.605,1.887,18.53,5.667,26.375,10.933l14.065-6.247l12.109,12.108l-6.245,14.061
				c5.268,7.845,9.048,16.774,10.935,26.381l14.35,5.523v17.124l-14.353,5.525c-1.887,9.606-5.667,18.53-10.934,26.375l6.247,14.065
				l-12.108,12.108l-14.061-6.245c-7.845,5.268-16.774,9.048-26.381,10.935l-5.523,14.349H256v-45.409h0
				c22.238,0,40.265-18.027,40.265-40.265c0-22.238-18.027-40.265-40.265-40.265h0v-45.41h8.562L270.086,41.776z" clip-rule="evenodd"/><path fill="#eceff1" fill-rule="evenodd" d="M81.434,369.028l-49.893,36.249v63.951c0,8.444,6.908,15.352,15.352,15.352h69.083
				c8.443,0,15.352-6.908,15.352-15.352v-63.951L81.434,369.028z" clip-rule="evenodd"/><path fill="#e1e4e6" fill-rule="evenodd" d="M81.434,484.579h34.541c8.443,0,15.352-6.908,15.352-15.352v-63.951l-49.893-36.249V484.579z" clip-rule="evenodd"/><path fill="#fe646f" fill-rule="evenodd" d="M25.036,414.89c-4.801,3.479-11.514,2.407-14.993-2.394c-3.479-4.801-2.407-11.514,2.394-14.993
				l62.698-45.553c3.921-2.841,9.117-2.647,12.785,0.135l62.512,45.418c4.801,3.479,5.873,10.192,2.394,14.993
				c-3.479,4.801-10.192,5.873-14.993,2.394l-56.399-40.976L25.036,414.89z" clip-rule="evenodd"/><path fill="#fd4755" fill-rule="evenodd" d="M81.434,349.907c2.312,0.002,4.601,0.748,6.486,2.178l62.512,45.418c4.801,3.479,5.873,10.192,2.394,14.993
				c-3.479,4.801-10.192,5.873-14.993,2.394l-56.399-40.976V349.907z" clip-rule="evenodd"/><path fill="#f1ba84" fill-rule="evenodd" d="M89.093,425.858H73.775c-3.972,0-7.221,3.25-7.221,7.222v51.5h29.761v-51.5
				C96.315,429.108,93.065,425.858,89.093,425.858z" clip-rule="evenodd"/><path fill="#de9252" fill-rule="evenodd" d="M89.093,425.858h-7.659v58.721h14.881v-51.5C96.315,429.108,93.065,425.858,89.093,425.858z" clip-rule="evenodd"/><path fill="#eceff1" fill-rule="evenodd" d="M255.999,369.028l-49.893,36.249v63.951c0,8.444,6.908,15.352,15.352,15.352h69.083
				c8.443,0,15.352-6.908,15.352-15.352v-63.951L255.999,369.028z" clip-rule="evenodd"/><path fill="#e1e4e6" fill-rule="evenodd" d="M255.999,484.579h34.541c8.443,0,15.352-6.908,15.352-15.352v-63.951l-49.893-36.249V484.579z" clip-rule="evenodd"/><path fill="#fe646f" fill-rule="evenodd" d="M199.601,414.89c-4.801,3.479-11.514,2.407-14.993-2.394c-3.479-4.801-2.408-11.514,2.394-14.993
				L249.7,351.95c3.921-2.841,9.117-2.647,12.785,0.135l62.512,45.418c4.801,3.479,5.873,10.192,2.394,14.993
				c-3.479,4.801-10.192,5.873-14.993,2.394l-56.399-40.976L199.601,414.89z" clip-rule="evenodd"/><path fill="#fd4755" fill-rule="evenodd" d="M255.999,349.907c2.312,0.002,4.601,0.748,6.486,2.178l62.512,45.418c4.801,3.479,5.873,10.192,2.394,14.993
				c-3.479,4.801-10.192,5.873-14.993,2.394l-56.399-40.976V349.907z" clip-rule="evenodd"/><path fill="#f1ba84" fill-rule="evenodd" d="M263.658,425.858H248.34c-3.972,0-7.221,3.25-7.221,7.222v51.5h29.761v-51.5
				C270.88,429.108,267.63,425.858,263.658,425.858z" clip-rule="evenodd"/><path fill="#de9252" fill-rule="evenodd" d="M263.658,425.858h-7.659v58.721h14.881v-51.5C270.88,429.108,267.63,425.858,263.658,425.858z" clip-rule="evenodd"/><g><path fill="#eceff1" fill-rule="evenodd" d="M430.564,369.028l-49.893,36.249v63.951c0,8.444,6.908,15.352,15.352,15.352h69.082
				c8.443,0,15.352-6.908,15.352-15.352v-63.951L430.564,369.028z" clip-rule="evenodd"/><path fill="#e1e4e6" fill-rule="evenodd" d="M430.564,484.579h34.541c8.443,0,15.352-6.908,15.352-15.352v-63.951l-49.893-36.249V484.579z" clip-rule="evenodd"/><path fill="#fe646f" fill-rule="evenodd" d="M374.165,414.89c-4.801,3.479-11.514,2.407-14.993-2.394c-3.479-4.801-2.408-11.514,2.394-14.993
				l62.698-45.553c3.921-2.841,9.117-2.647,12.785,0.135l62.512,45.418c4.801,3.479,5.873,10.192,2.394,14.993
				c-3.479,4.801-10.192,5.873-14.993,2.394l-56.399-40.976L374.165,414.89z" clip-rule="evenodd"/><path fill="#fd4755" fill-rule="evenodd" d="M430.564,349.907c2.312,0.002,4.601,0.748,6.486,2.178l62.512,45.418c4.801,3.479,5.873,10.192,2.394,14.993
				c-3.479,4.801-10.192,5.873-14.993,2.394l-56.399-40.976V349.907z" clip-rule="evenodd"/><path fill="#f1ba84" fill-rule="evenodd" d="M438.223,425.858h-15.319c-3.972,0-7.221,3.25-7.221,7.222v51.5h29.761v-51.5
				C445.445,429.108,442.195,425.858,438.223,425.858z" clip-rule="evenodd"/><path fill="#de9252" fill-rule="evenodd" d="M438.223,425.858h-7.659v58.721h14.881v-51.5C445.445,429.108,442.195,425.858,438.223,425.858z" clip-rule="evenodd"/></g><path fill-rule="evenodd" d="M494.88,403.979l-62.53-45.423c-0.042-0.033-0.08-0.066-0.132-0.099c-0.778-0.59-2.118-0.849-3.25-0.028
		l-62.69,45.546c-0.807,0.585-1.038,1.373-1.109,1.793c-0.071,0.415-0.09,1.236,0.49,2.033c0.581,0.802,1.359,1.028,1.779,1.099
		c0.42,0.066,1.241,0.089,2.043-0.486l56.387-40.974c1.401-1.019,3.053-1.524,4.704-1.524c1.646,0,3.298,0.505,4.699,1.524
		l56.396,40.979c0.793,0.571,1.623,0.547,2.033,0.481c0.42-0.071,1.208-0.297,1.779-1.099
		C496.37,406.579,496.097,404.866,494.88,403.979L494.88,403.979z M472.461,469.227c0,4.057-3.293,7.355-7.35,7.355h-11.663v-43.503
		c0-8.393-6.831-15.219-15.22-15.219H422.91c-8.388,0-15.219,6.827-15.219,15.219v43.503h-11.663c-4.048,0-7.35-3.298-7.35-7.355
		v-54.986l41.894-30.439l41.889,30.439V469.227L472.461,469.227z M437.45,433.857h-13.762v42.724h13.762V433.857L437.45,433.857z
		 M508.439,417.189c-2.93,4.053-7.27,6.723-12.219,7.511c-1,0.156-2,0.236-2.991,0.236c-1.618,0-3.218-0.222-4.77-0.632v44.923
		c0,12.879-10.469,23.353-23.348,23.353h-69.083c-12.88,0-23.348-10.474-23.348-23.353v-44.927c-2.5,0.665-5.128,0.821-7.761,0.401
		c-4.939-0.788-9.28-3.458-12.219-7.511c-2.93-4.052-4.118-9.006-3.331-13.946c0.788-4.944,3.458-9.285,7.511-12.219l62.69-45.546
		c6.708-4.864,15.639-4.789,22.249,0.175l62.449,45.376C512.628,397.087,514.501,408.825,508.439,417.189L508.439,417.189z
		 M320.307,403.979l-62.52-45.423c-0.038-0.033-0.09-0.066-0.127-0.099c-0.783-0.59-2.128-0.849-3.26-0.028l-62.69,45.546
		c-1.231,0.891-1.5,2.604-0.618,3.826c0.576,0.802,1.368,1.028,1.788,1.099c0.41,0.066,1.227,0.089,2.029-0.486L251.3,367.44
		c1.41-1.019,3.062-1.524,4.708-1.524c1.651,0,3.302,0.505,4.699,1.524l56.401,40.979c1.212,0.877,2.93,0.604,3.812-0.618
		C321.808,406.579,321.529,404.866,320.307,403.979L320.307,403.979z M297.898,469.227c0,4.057-3.298,7.355-7.35,7.355H278.89
		v-43.503c0-8.393-6.831-15.219-15.22-15.219h-15.319c-8.402,0-15.219,6.827-15.219,15.219v43.503H221.47
		c-4.062,0-7.36-3.298-7.36-7.355v-54.986l41.899-30.439l41.889,30.439V469.227L297.898,469.227z M262.887,433.857H249.13v42.724
		h13.757V433.857L262.887,433.857z M333.88,417.189c-4.671,6.445-12.71,9.02-19.98,7.096v44.942
		c0,12.879-10.483,23.353-23.353,23.353H221.47c-12.88,0-23.363-10.474-23.363-23.353v-44.923c-1.547,0.41-3.137,0.632-4.76,0.632
		c-1,0-1.996-0.076-2.996-0.236c-4.944-0.788-9.28-3.458-12.21-7.511c-6.063-8.364-4.194-20.102,4.166-26.165l62.699-45.546
		c6.714-4.864,15.63-4.789,22.245,0.175l62.459,45.376C338.06,397.087,339.938,408.825,333.88,417.189L333.88,417.189z
		 M145.749,403.979l-62.52-45.423c-0.047-0.033-0.09-0.066-0.141-0.099c-0.769-0.59-2.118-0.849-3.251-0.028l-62.69,45.546
		c-0.807,0.585-1.038,1.373-1.109,1.788c-0.061,0.42-0.09,1.241,0.491,2.038c0.58,0.802,1.359,1.028,1.783,1.099
		c0.415,0.066,1.236,0.089,2.038-0.486l56.387-40.974c1.401-1.019,3.052-1.524,4.704-1.524c1.646,0,3.298,0.505,4.699,1.524
		l56.401,40.979c0.788,0.571,1.618,0.547,2.029,0.481c0.42-0.071,1.208-0.297,1.788-1.099
		C147.24,406.579,146.971,404.866,145.749,403.979L145.749,403.979z M123.33,469.227c0,4.057-3.293,7.355-7.351,7.355h-11.662
		v-43.503c0-8.393-6.827-15.219-15.219-15.219H73.779c-8.393,0-15.22,6.827-15.22,15.219v43.503H46.897
		c-4.048,0-7.35-3.298-7.35-7.355v-54.986l41.894-30.439l41.889,30.439V469.227L123.33,469.227z M88.319,433.857H74.558v42.724
		h13.762V433.857L88.319,433.857z M159.308,417.189c-2.93,4.053-7.27,6.723-12.219,7.511c-1,0.156-2,0.236-2.991,0.236
		c-1.618,0-3.217-0.222-4.77-0.632v44.923c0,12.879-10.469,23.353-23.348,23.353H46.897c-12.88,0-23.348-10.474-23.348-23.353
		v-44.927c-2.5,0.665-5.128,0.821-7.761,0.401c-4.939-0.788-9.28-3.458-12.219-7.511c-2.93-4.052-4.119-9.006-3.331-13.946
		c0.793-4.944,3.463-9.285,7.511-12.219l62.69-45.546c6.709-4.864,15.64-4.789,22.249,0.175l62.449,45.376
		C163.502,397.087,165.37,408.825,159.308,417.189L159.308,417.189z M178.33,116.166l9.228,3.553
		c2.562,0.986,4.439,3.222,4.973,5.921c1.661,8.421,4.93,16.319,9.728,23.466c1.529,2.283,1.788,5.189,0.67,7.704l-4.02,9.044
		l4.34,4.34l9.049-4.02c2.51-1.118,5.421-0.863,7.709,0.67c7.152,4.798,15.045,8.072,23.452,9.728
		c2.699,0.528,4.94,2.406,5.93,4.973l3.548,9.228h6.142l3.548-9.223c0.981-2.566,3.223-4.449,5.921-4.977
		c8.421-1.651,16.319-4.926,23.462-9.723c2.288-1.533,5.199-1.788,7.709-0.675l9.039,4.02l4.34-4.34l-4.02-9.048
		c-1.109-2.51-0.859-5.421,0.67-7.704c4.798-7.152,8.082-15.045,9.728-23.457c0.533-2.699,2.411-4.935,4.982-5.926l9.219-3.553
		v-6.138l-9.219-3.548c-2.571-0.991-4.449-3.227-4.982-5.925c-1.646-8.421-4.916-16.319-9.719-23.462
		c-1.538-2.283-1.788-5.194-0.67-7.709l4.01-9.039l-4.34-4.34l-9.039,4.015c-2.52,1.118-5.43,0.863-7.709-0.67
		c-7.152-4.798-15.04-8.067-23.462-9.723c-2.698-0.528-4.93-2.411-5.921-4.977l-3.548-9.223h-6.142l-3.548,9.223
		c-0.991,2.567-3.232,4.449-5.93,4.977c-8.407,1.656-16.309,4.925-23.462,9.723c-2.279,1.533-5.19,1.788-7.7,0.67l-9.049-4.015
		l-4.34,4.34l4.02,9.044c1.118,2.515,0.859,5.421-0.67,7.704c-4.798,7.152-8.067,15.045-9.728,23.462
		c-0.533,2.699-2.402,4.935-4.973,5.925l-9.228,3.548V116.166L178.33,116.166z M162.327,121.658v-17.121
		c0-3.307,2.043-6.274,5.133-7.468l10.36-3.987c1.897-7.431,4.831-14.498,8.747-21.103l-4.506-10.162
		c-1.34-3.024-0.684-6.563,1.656-8.903l12.101-12.106c2.34-2.34,5.878-3,8.912-1.656l10.157,4.51
		c6.6-3.925,13.672-6.855,21.103-8.747l3.987-10.365c1.189-3.09,4.161-5.128,7.473-5.128h17.121c3.307,0,6.279,2.038,7.469,5.128
		l3.986,10.365c7.426,1.892,14.493,4.821,21.103,8.747l10.162-4.51c3.019-1.345,6.558-0.684,8.898,1.656l12.111,12.106
		c2.34,2.34,3.001,5.878,1.651,8.903l-4.51,10.157c3.93,6.605,6.86,13.672,8.752,21.107l10.37,3.987
		c3.076,1.189,5.119,4.157,5.119,7.468v17.121c0,3.312-2.043,6.279-5.119,7.468l-10.37,3.992
		c-1.892,7.426-4.822,14.493-8.752,21.098l4.51,10.162c1.349,3.024,0.689,6.563-1.651,8.902l-12.111,12.111
		c-2.34,2.34-5.878,2.996-8.898,1.656l-10.162-4.51c-6.6,3.925-13.672,6.855-21.108,8.747l-3.982,10.365
		c-1.189,3.085-4.161,5.128-7.469,5.128h-17.121c-3.312,0-6.284-2.043-7.473-5.128l-3.987-10.365
		c-7.43-1.897-14.503-4.826-21.103-8.751l-10.157,4.515c-3.033,1.34-6.572,0.684-8.912-1.656l-12.101-12.111
		c-2.34-2.335-2.996-5.879-1.656-8.902l4.506-10.153c-3.916-6.61-6.85-13.677-8.747-21.107l-10.36-3.992
		C164.37,127.937,162.327,124.97,162.327,121.658L162.327,121.658z M223.739,113.1c0-17.791,14.479-32.265,32.27-32.265
		c17.79,0,32.26,14.474,32.26,32.265s-14.47,32.265-32.26,32.265C238.218,145.365,223.739,130.89,223.739,113.1L223.739,113.1z
		 M207.736,113.1c0-26.613,21.655-48.268,48.273-48.268c26.608,0,48.258,21.655,48.258,48.268s-21.65,48.263-48.258,48.263
		C229.391,161.363,207.736,139.713,207.736,113.1L207.736,113.1z M73.44,315.375v-42.234c0-4.421,3.59-8.001,8.001-8.001h166.566
		v-31.836c0-4.416,3.581-7.997,8.002-7.997c4.42,0,8.001,3.581,8.001,7.997v31.836h166.561c4.416,0,7.996,3.581,7.996,8.001v42.234
		c0,4.416-3.581,7.996-7.996,7.996c-4.426,0-8.001-3.581-8.001-7.996v-34.237H264.01v34.237c0,4.416-3.581,7.996-8.001,7.996
		c-4.421,0-8.002-3.581-8.002-7.996v-34.237H89.437v34.237c0,4.416-3.581,7.996-7.997,7.996
		C77.03,323.371,73.44,319.79,73.44,315.375z" clip-rule="evenodd"/></svg>