<svg xmlns="http://www.w3.org/2000/svg" xmlns:svgjs="http://svgjs.com/svgjs" xmlns:xlink="http://www.w3.org/1999/xlink" width="288" height="288"><svg xmlns="http://www.w3.org/2000/svg" width="288" height="288" viewBox="0 0 512 512"><path fill="#55abff" d="M506.73,409.81a7.48,7.48,0,0,1-8.83-3.07C453.22,336,358.65,303.24,216.8,309.25v65.16a24.22,24.22,0,0,1-40.66,17.7L7.91,234.71a24,24,0,0,1-7.65-18,24.55,24.55,0,0,1,8.39-18.1l.08-.07L177.06,56A24.13,24.13,0,0,1,216.8,74.46v64.45c20.13-.89,73.86-.51,130.83,22.83,41.71,17.09,76.35,43,103,77,33.11,42.31,53.67,97.2,61.12,163.17A7.49,7.49,0,0,1,506.73,409.81Z" class="color9fbfce svgShape"/><path fill="#2492ff" d="M216.8 360.41v14a24.22 24.22 0 0 1-40.66 17.7L7.91 234.71A24.11 24.11 0 0 1 1.3 210.08a23.76 23.76 0 0 0 6.61 10.63l168.23 157.4a24.22 24.22 0 0 0 40.66-17.7zM506.73 409.81a7.48 7.48 0 0 1-8.83-3.07C453.22 336 358.65 303.24 216.8 309.25v-14c141.85-6 236.42 26.78 281.1 97.49a7.48 7.48 0 0 0 8.83 3.07 7.41 7.41 0 0 0 3.83-3c.42 3 .79 6.06 1.14 9.13A7.49 7.49 0 0 1 506.73 409.81z" class="color83a8b7 svgShape"/><rect width="181.04" height="4" x="13.91" y="135.2" fill="#fff" class="colorfff svgShape" transform="rotate(-40.27 104.422 137.188)"/><path fill="#fff" d="M482.28,326.13a2,2,0,0,1-1.86-1.26C443.56,233,375.71,191.78,325.27,173.42c-54.76-19.93-101.42-18.06-101.89-18a2,2,0,0,1-.18-4c.47,0,47.8-1.94,103.29,18.22,32.61,11.85,61.64,28.9,86.3,50.67,30.82,27.21,54.82,61.9,71.35,103.11a2,2,0,0,1-1.86,2.75Z" class="colorfff svgShape"/></svg></svg>