<svg xmlns="http://www.w3.org/2000/svg" xmlns:svgjs="http://svgjs.com/svgjs" xmlns:xlink="http://www.w3.org/1999/xlink" width="288" height="288"><svg xmlns="http://www.w3.org/2000/svg" width="288" height="288" enable-background="new 0 0 512 512" viewBox="0 0 512 512"><path fill="#f3b156" d="M411.826,300.522c-34.606,0-65.168,17.641-83.171,44.399l-131.556-63.585c2.118-8.095,3.249-16.586,3.249-25.336
			c0-8.751-1.131-17.241-3.249-25.336l131.556-63.585c18.003,26.759,48.565,44.399,83.171,44.399
			C467.062,211.478,512,166.54,512,111.304S467.062,11.13,411.826,11.13S311.652,56.068,311.652,111.304
			c0,8.751,1.131,17.241,3.249,25.336l-131.556,63.585c-18.003-26.759-48.565-44.399-83.171-44.399C44.938,155.826,0,200.764,0,256
			s44.938,100.174,100.174,100.174c34.606,0,65.168-17.641,83.171-44.399l131.556,63.585c-2.118,8.095-3.249,16.585-3.249,25.336
			c0,55.236,44.938,100.174,100.174,100.174S512,455.932,512,400.696S467.062,300.522,411.826,300.522z M411.826,44.522
			c36.824,0,66.783,29.959,66.783,66.783c0,36.824-29.959,66.783-66.783,66.783s-66.783-29.959-66.783-66.783
			C345.043,74.48,375.002,44.522,411.826,44.522z M100.174,322.783c-36.824,0-66.783-29.959-66.783-66.783
			s29.959-66.783,66.783-66.783c36.824,0,66.783,29.959,66.783,66.783S136.998,322.783,100.174,322.783z M411.826,467.478
			c-36.824,0-66.783-29.959-66.783-66.783c0-36.824,29.959-66.783,66.783-66.783c36.824,0,66.783,29.959,66.783,66.783
			C478.609,437.52,448.65,467.478,411.826,467.478z" class="color000 svgShape"/></svg></svg>