<svg xmlns="http://www.w3.org/2000/svg" data-name="Layer 1" viewBox="0 0 512 512"><rect width="228" height="55" x="142" y="7.5" fill="#26a6fe" rx="27.5"/><path fill="#0593fc" d="M342.5 7.5h-30A27.5 27.5 0 0 1 340 35a27.5 27.5 0 0 1-27.5 27.5h30A27.5 27.5 0 0 0 370 35a27.5 27.5 0 0 0-27.5-27.5Z"/><circle cx="256" cy="433" r="71.5" fill="#fed402"/><path fill="#fac600" d="M256 361.5a71.28 71.28 0 0 0-15 1.6 71.49 71.49 0 0 1 0 139.8 71.5 71.5 0 1 0 15-141.4Z"/><circle cx="433" cy="433" r="71.5" fill="#fe9738"/><path fill="#fe860a" d="M433 361.5a71.28 71.28 0 0 0-15 1.6 71.49 71.49 0 0 1 0 139.8 71.5 71.5 0 1 0 15-141.4Z"/><circle cx="79" cy="433" r="71.5" fill="#09a76d"/><path fill="#02905d" d="M79 361.5a71.28 71.28 0 0 0-15 1.6 71.49 71.49 0 0 1 0 139.8 71.5 71.5 0 1 0 15-141.4Z"/><path d="M169.5 70h173a35 35 0 0 0 0-70h-173a35 35 0 0 0 0 70Zm0-55h173a20 20 0 0 1 0 40h-173a20 20 0 0 1 0-40Zm142 159.5v-82a7.5 7.5 0 0 0-15 0v82A17.52 17.52 0 0 0 314 192h112a2.5 2.5 0 0 1 2.5 2.5v137a7.5 7.5 0 0 0 15 0v-137A17.52 17.52 0 0 0 426 177H314a2.5 2.5 0 0 1-2.5-2.5Zm-63-82v239a7.5 7.5 0 0 0 15 0v-239a7.5 7.5 0 0 0-15 0ZM256 354a79 79 0 1 0 79 79 79.09 79.09 0 0 0-79-79Zm0 143a64 64 0 1 1 64-64 64.07 64.07 0 0 1-64 64ZM79 354a79 79 0 1 0 79 79 79.09 79.09 0 0 0-79-79Zm0 143a64 64 0 1 1 64-64 64.07 64.07 0 0 1-64 64Zm0-158a7.5 7.5 0 0 0 7.5-7.5v-137A2.5 2.5 0 0 1 89 192h112a17.52 17.52 0 0 0 17.5-17.5v-82a7.5 7.5 0 0 0-15 0v82a2.5 2.5 0 0 1-2.5 2.5H89a17.52 17.52 0 0 0-17.5 17.5v137A7.5 7.5 0 0 0 79 339Zm354 15a79 79 0 1 0 79 79 79.09 79.09 0 0 0-79-79Zm0 143a64 64 0 1 1 64-64 64.07 64.07 0 0 1-64 64Z"/></svg>