<svg xmlns="http://www.w3.org/2000/svg" xmlns:svgjs="http://svgjs.com/svgjs" xmlns:xlink="http://www.w3.org/1999/xlink" width="288" height="288"><svg xmlns="http://www.w3.org/2000/svg" width="288" height="288" enable-background="new 0 0 47.416 47.416" viewBox="0 0 47.416 47.416"><path fill="#ec0c3b" d="M0,30.739h11.083v11.083H0V30.739z M0,18.072h11.083v11.083H0V18.072z M0,5.406h11.083v11.083H0
		V5.406z M12.667,5.406H23.75v11.083H12.667V5.406z M12.667,18.072H23.75v11.083H12.667V18.072z M12.667,30.739H23.75v11.083H12.667
		V30.739z M15.833,33.906v4.75h4.75v-4.75H15.833z M43.644,39.603l-6.271,2.407l-11.572-5.152l5.152-11.572l6.271-2.407l-3.6,8.088
		c3.104-0.998,5.787-3.264,7.217-6.477c1.949-4.378,1.036-9.305-1.935-12.683c-0.828-0.499-1.382-1.406-1.382-2.443
		c0-1.574,1.276-2.85,2.85-2.85c0.998,0,1.876,0.513,2.385,1.289c4.6,4.959,6.071,12.371,3.146,18.941
		c-2.03,4.56-5.779,7.818-10.143,9.351L43.644,39.603z" class="color010002 svgShape"/></svg></svg>