<?xml version="1.0" encoding="UTF-8" standalone="no"?> <svg xmlns="http://www.w3.org/2000/svg" viewBox="0 0 32 32"><defs><style>.cls-1{fill:#2d4a60;}.cls-2{fill:#fd3730;}.cls-3{fill:#ff665a;}</style></defs><title>Microphone</title><g id="Microphone"><path class="cls-1" d="M27,15a1,1,0,0,0-2,0A9,9,0,0,1,7,15a1,1,0,0,0-2,0A11.01,11.01,0,0,0,15,25.949V28H10a1,1,0,0,0,0,2H22a1,1,0,0,0,0-2H17V25.949A11.01,11.01,0,0,0,27,15Z"/><path class="cls-2" d="M16,22a7.008,7.008,0,0,1-7-7V9A7,7,0,0,1,23,9v6A7.008,7.008,0,0,1,16,22Z"/><path class="cls-3" d="M12.5,10.5A1.5,1.5,0,0,1,11,9a5.006,5.006,0,0,1,5-5,1.5,1.5,0,0,1,0,3,2,2,0,0,0-2,2A1.5,1.5,0,0,1,12.5,10.5Z"/></g></svg>